<svg xmlns="http://www.w3.org/2000/svg" viewBox="-57 127 702.0000158691406 321"> <svg xmlns="http://www.w3.org/2000/svg" xmlns:xlink="http://www.w3.org/1999/xlink" version="1.1" id="Layer_1" x="13" y="197" viewBox="0.2902938723564148 0.011456131935119629 365.7497253417969 371.9885559082031" xml:space="preserve" height="181" width="177.96433037307662" preserveAspectRatio="xMinYMin" enable-background="new 0 0 366.1 372" style="overflow: visible;"><path class="st1" d="M35.9,122.9c-0.5-1-0.8-1.1-0.9-1.2c0,0,0,0,0,0c-0.1,0-0.4,0.2-0.5,0.5c-0.2,0.5-0.1,1.2,0,1.8   c0.6,3.5,2.1,6.9,4.5,9.5c-0.5-2.2-1-4.3-1.3-6.4C37.1,125.7,36.6,124.3,35.9,122.9z" style="fill: none;"></path><path class="st1" d="M43,103c0.1,0.1,0.1,0.2,0.2,0.2c2.3-0.8,4.3-2.1,6-3.4c0.7-0.5,1.4-1,1.8-1.6c0.4-0.5,0.5-1.1,0.4-1.5   c-0.1-0.4-0.5-0.8-0.9-0.9c-0.5-0.1-1.1,0.2-1.9,0.8c-2.6,2-4.3,4-5.5,6.1C43.2,102.9,43.1,103,43,103z" style="fill: none;"></path><path class="st1" d="M36.8,101.8c0-0.7,0-1.5,0-2.2c-0.1-1.7-0.3-3.5-1.2-4.9c-0.3-0.5-0.6-0.8-0.9-1c-0.2-0.1-0.4-0.2-0.5-0.2   c-0.1,0-0.1,0-0.1,0c-0.1,0-0.2,0.3-0.3,0.8c-0.3,2.6,0.8,5.5,2.8,7.6C36.7,101.9,36.8,101.8,36.8,101.8z" style="fill: none;"></path><path class="st1" d="M39.6,101.5c0.4,0.1,0.7,0.2,1.2,0.3c0,0,0,0,0,0c0.5-1.4,1.3-2.6,2.1-3.7l0.1-0.2c0.8-1.1,1.4-2.1,1.7-3.2   c0.3-1,0.1-2-0.5-2.7c-0.6-0.7-1.7-1-2.4-0.6c-0.4,0.2-0.7,0.8-1,1.8c-0.5,1.7-1,4.1-1.2,6.4C39.6,100.2,39.6,100.9,39.6,101.5z" style="fill: none;"></path><path class="st1" d="M59.9,143c0.3,0.6,0.6,1.1,0.9,1.7c0.2-0.1,0.5-0.1,0.7-0.2c-0.3-1.4-0.2-2.8-0.1-4.2l0-0.2   c0.1-1.3,0.1-2.5-0.2-3.6c-0.3-1.1-0.9-1.9-1.6-2.2c-0.7-0.3-1.6-0.1-1.8,0.4c-0.3,0.5-0.1,1.4,0,2.1C58.3,138.5,59,140.8,59.9,143   z" style="fill: none;"></path><path class="st1" d="M58.6,146.2c-0.4-0.7-0.7-1.3-1.1-2c-0.8-1.5-1.8-2.9-3.2-3.8c-0.4-0.3-0.8-0.4-1-0.5c0,0,0,0,0,0   c-0.1,0-0.3,0.1-0.4,0.2c-0.3,0.3-0.5,0.7-0.5,1.1c0,0.8,0.7,1.7,1.4,2.3C54.9,144.6,56.5,145.6,58.6,146.2   C58.6,146.3,58.6,146.2,58.6,146.2z" style="fill: none;"></path><path class="st1" d="M40,104.4c-0.5-0.2-0.9-0.3-1.3-0.3c-0.1,0-0.2,0-0.2,0c-0.3,0-0.4,0.1-0.4,0.1c0,0-0.2,0.3-0.2,1.3   c0,0,0,0,0,0c0,0.3,0,0.5,0,0.8v0.2c0,2.1,0.5,3.3,0.7,3.5c0.7-0.5,1.6-2,1.8-2.5c0.6-1.1,0.8-1.9,0.5-2.5   C41,104.8,40.8,104.6,40,104.4z" style="fill: none;"></path><path class="st1" d="M40.9,130c0.8-2.7,1.9-5.3,3-7.9c0.5-1.1,1-2.3,1.4-3.4c0.3-0.8,0.6-1.6,0.5-2.3c0-0.5-0.3-0.9-0.6-1   c-0.2,0-0.6,0.1-1.1,0.5c-1.5,1.1-2.5,3.1-3,5.4c-0.4,2.1-0.5,4.7-0.3,7.3c0,0.3-0.1,0.5-0.2,0.7C40.8,129.6,40.9,129.8,40.9,130z" style="fill: none;"></path><path class="st1" d="M63.7,152.3c0.3-0.8,0.2-2.3,0.2-2.8c0-1.3-0.3-2.1-0.8-2.5c0,0-0.2,0-0.9,0.1c-0.4,0.1-0.8,0.2-1,0.3   c-0.2,0.1-0.3,0.2-0.3,0.2c0,0,0,0.3,0.4,1.3c0.1,0.3,0.3,0.5,0.4,0.7l0.1,0.1C62.5,151.1,63.3,152,63.7,152.3z" style="fill: none;"></path><path class="st1" d="M57.3,177.5c-1.6-0.3-3.3-0.5-4.5-0.7c-0.9-0.2-1.8-0.3-2.7-0.3c-0.4,0-0.7,0-1.1,0.1   c-0.9,0.2-1.9,0.8-2.2,1.7c-0.3,1.1,0.7,2.4,1.9,2.8c1.5,0.6,3.3,0.5,4.9,0.4c2.5-0.2,5.7-0.5,8.9-0.8c1.1-0.1,2.3-0.2,3.4-0.3   c-1.4-0.7-2.9-1.4-4.4-2.1C60.2,177.9,58.8,177.7,57.3,177.5z" style="fill: none;"></path><path class="st1" d="M85.7,199.2c-0.2-0.2-0.8-0.6-1.1-0.6c0,0,0,0-0.1,0c-0.1,0-0.3,0.2-0.4,0.5c-0.1,0.4-0.1,0.8,0.1,1.4   c0.8,2.3,3.1,4.2,6.8,5.6c1.4,0.5,2.6,1.1,3.9,1.8c-0.7-1-1.5-2.1-2.3-3.1C90.4,202.9,87.9,200.8,85.7,199.2z" style="fill: none;"></path><path class="st1" d="M50.1,207.8c-0.7,0.1-1.5,0.1-2.2,0.1c-1.7,0.1-3.4,0.5-4.9,1.4c-0.5,0.3-0.8,0.6-0.9,0.9   c-0.2,0.3-0.2,0.6-0.1,0.7c0,0.1,0.3,0.2,0.9,0.3c2.7,0.2,5.5-1,7.5-3.2C50.2,207.9,50.1,207.8,50.1,207.8z" style="fill: none;"></path><path class="st1" d="M25.4,168.2c-0.3,0-0.6,0.1-0.8,0.2c0,0-0.1,0.2-0.3,0.8c-0.1,0.4-0.1,0.8-0.1,1.1c0,0.3,0.1,0.4,0.1,0.4   c0,0,0.3,0.1,1.4,0.1c0.3,0,0.6,0,0.8-0.1l0.2,0c1.6-0.2,2.7-0.5,3.1-0.8c-0.7-0.6-2.1-1.1-2.6-1.3   C26.5,168.4,25.9,168.2,25.4,168.2z" style="fill: none;"></path><path class="st1" d="M15.6,162.1c2.4,2.1,4.5,3.5,6.8,4.3c0.1,0,0.2,0.1,0.3,0.1c0,0,0.1-0.1,0.1-0.1c-1-2-2-4-3.5-5.4l-0.2-0.2   c-0.5-0.5-1-0.9-1.5-1.2c-0.2-0.1-0.5-0.2-0.8-0.2c-0.4,0-0.9,0.1-1.3,0.3c-0.4,0.2-0.8,0.5-0.9,0.9   C14.5,161.1,15.1,161.7,15.6,162.1z" style="fill: none;"></path><path class="st1" d="M22.2,172.4c-0.7,0.1-1.5,0.2-2.3,0.2c-1.7,0.2-3.4,0.6-4.8,1.6c-0.4,0.3-0.7,0.5-0.8,0.8   c-0.1,0.1-0.1,0.3,0,0.5c0.1,0.4,0.5,0.7,0.8,0.9c0.7,0.3,1.9-0.1,2.6-0.4C19.4,175.3,20.9,174.1,22.2,172.4   C22.3,172.4,22.2,172.4,22.2,172.4z" style="fill: none;"></path><path class="st1" d="M60.3,170.7c-0.5-0.3-1-0.6-1.4-0.7c-0.3,0-0.5,0.1-0.5,0.1c0,0-0.1,0.2,0.1,0.9c0.3,1,1.7,2.2,2.9,3.2   c0.6,0.5,1.2,1.1,1.7,1.6c2.2,1,4.3,2,6.4,3.1C66.7,175.8,63.7,173,60.3,170.7z" style="fill: none;"></path><path class="st1" d="M19.7,169.9c0.6-0.1,1.3-0.1,1.9-0.2c0-0.2,0.1-0.5,0.1-0.8c-1.4-0.3-2.7-0.9-3.9-1.5l-0.2-0.1   c-1.2-0.6-2.3-1.1-3.4-1.2c-1.1-0.1-2.1,0.1-2.7,0.7c-0.5,0.5-0.7,1.4-0.3,1.9c0.4,0.5,1.2,0.6,2,0.7C15,169.8,17.4,170,19.7,169.9   z" style="fill: none;"></path><path class="st1" d="M11.3,127.4c-0.5-0.5-1.1-1-1.5-1.5c-1.3-1.2-2.7-2.2-4.6-2.6c-0.6-0.1-1.1-0.1-1.6,0   c-0.5,0.1-0.8,0.4-0.9,0.6c-0.1,0.2,0.1,0.5,0.3,0.8c1.7,2.2,4.8,3.4,8.2,3.2C11.2,127.6,11.3,127.5,11.3,127.4z" style="fill: none;"></path><path class="st1" d="M64.2,144.4c0.1,0,0.1,0,0.2,0.1c1.5-1.7,2.9-3.4,3.7-5.3l0.1-0.3c0.2-0.6,0.5-1.2,0.5-1.8   c0-0.6-0.3-1.4-0.9-2c-0.2-0.2-0.6-0.5-1-0.5c-0.1,0-0.1,0-0.2,0c-0.4,0.1-0.7,0.9-1,1.5c-1.1,3-1.5,5.5-1.4,7.9   C64.2,144.2,64.2,144.3,64.2,144.4z" style="fill: none;"></path><path class="st1" d="M77.7,255.6c-0.1,0-0.2-0.1-0.3-0.1c-0.4,0-1.2,0.2-1.7,0.6c0,0,0,0,0,0c-0.6,0.4-1,1-1.1,1.5   c-0.1,0.5,0,1,0.3,1.2c0.2,0.2,0.6,0.2,1,0.2c0.8-0.1,1.5-0.7,1.8-1.4C78.1,256.9,78,255.8,77.7,255.6   C77.7,255.6,77.7,255.6,77.7,255.6z" style="fill: none;"></path><path class="st1" d="M71.1,243.9L71.1,243.9c-0.3-0.1-0.7-0.1-1-0.1c-0.4,0-0.8,0.1-1.1,0.2c-0.5,0.2-0.8,0.7-0.8,1.1   c0,0.3,0.2,0.6,0.5,0.9c0.6,0.6,1.6,0.8,2.4,0.6c0.8-0.2,1.7-1,1.7-1.4C73,244.8,72.1,244.1,71.1,243.9z" style="fill: none;"></path><path class="st1" d="M89.5,260.9c-0.7,0.4-1.1,0.9-1.3,1.4c-0.2,0.5-0.1,1,0.2,1.3c0.2,0.2,0.6,0.3,0.9,0.3c0.8,0,1.6-0.5,2-1.2   c0.4-0.7,0.5-1.8,0.2-2.1C91.3,260.4,90.2,260.5,89.5,260.9z" style="fill: none;"></path><path class="st1" d="M111.4,250.7c0.2-0.1,0.5-0.4,0.6-0.7c0.3-0.7,0.2-1.7-0.2-2.3c-0.4-0.6-1.3-1.1-1.7-1.1c0,0-0.1,0-0.1,0   c-0.3,0.1-0.6,1.1-0.6,2c0,0,0,0,0,0c0.1,0.8,0.3,1.4,0.7,1.8C110.5,250.7,111.1,250.8,111.4,250.7z" style="fill: none;"></path><path class="st1" d="M97.3,243.3C97.3,243.3,97.3,243.3,97.3,243.3c0.3,0,0.6-0.2,0.9-0.4c0.6-0.6,0.9-1.4,0.7-2.2   c-0.2-0.8-0.9-1.7-1.2-1.7c0,0,0,0,0,0c-0.3,0-1,0.8-1.3,1.6c-0.2,0.7-0.3,1.4,0,1.9C96.4,242.9,96.9,243.3,97.3,243.3z" style="fill: none;"></path><path class="st1" d="M225.5,183.7c0-0.1,0-0.1,0-0.2l-2.4-22.8l-3.3,23.9c0,0.1,0,0.1,0,0.2c-1.1,4.2-4.4,7.4-8.6,8.3l-10.2,2.4   l10.8,3.1c3.9,1,6.9,4.1,8,8c0,0.1,0,0.1,0,0.2c0.8,6.6,2.1,15.9,3,22.3c0.9-5.9,2-14.5,3-22.4c0-0.1,0-0.1,0-0.2   c1-4.2,4.2-7.4,8.4-8.4l10.4-3.1l-10.8-2.8C229.7,191.2,226.5,188,225.5,183.7z" style="fill: none;"></path><path class="st1" d="M103.8,263.8c0,0-0.1,0-0.1,0c-0.4,0-1.2,0.5-1.7,1.1l0,0c-0.5,0.6-0.7,1.3-0.7,1.8c0,0.5,0.3,1,0.7,1.1   c0.3,0.1,0.6,0,1-0.1c0.7-0.3,1.3-1.1,1.4-1.9C104.5,265,104.1,263.9,103.8,263.8z" style="fill: none;"></path><path class="st1" d="M80.6,236.6c0.2-0.1,0.5-0.4,0.6-0.7c0.3-0.7,0.2-1.7-0.2-2.3c-0.4-0.6-1.4-1.2-1.8-1.1   c-0.3,0.1-0.6,1.1-0.6,2c0.1,0.8,0.3,1.4,0.7,1.8C79.7,236.6,80.2,236.7,80.6,236.6z" style="fill: none;"></path><path class="st1" d="M36.6,144.7l-0.3-1.3c-0.1-0.6-0.3-1.3-0.5-1.7c-0.2-0.3-0.5-0.5-0.6-0.5c-0.1,0-0.4,0.3-0.5,0.6   c-0.2,0.5-0.1,1.2,0,1.8c0,0.4,0.1,0.9,0.1,1.4c0,0.6,0,1.3,0.1,1.9c0.9,0.7,1.9,1.5,2.8,2.2C37.3,147.7,36.9,146.2,36.6,144.7z" style="fill: none;"></path><path class="st1" d="M96,193.6c-0.1-0.8-0.2-1.3-0.4-1.4c-0.1-0.1-0.5,0-0.8,0.3c-0.4,0.5-0.5,1.2-0.6,2c-0.3,3-0.1,6.1,0.7,8.9   c0.8,1.1,1.6,2.2,2.4,3.3L96,193.6z" style="fill: none;"></path><path class="st1" d="M33.4,149.8c-2.7-1.5-5.9-1.9-9.7-1.3c-1.2,0.2-1.9,0.8-1.9,1c0,0,0.1,0.4,1.1,0.9c0.7,0.4,1.6,0.5,2.5,0.7   l13,2.1c-1.4-1-2.7-2.1-4.1-3.2C34,150,33.7,150,33.4,149.8z" style="fill: none;"></path><path class="st1" d="M79.6,176.7c0.4-3.5,0.8-6.7,0.1-9.7c-0.2-1-0.7-1.7-1-1.7c-0.2,0-0.6,0.3-1.1,0.9c-1.3,2-1.8,4.8-1.3,7.8   c0.3,1.8,0.8,4.5,1.4,6.9c0.5,0.7,0.9,1.4,1.4,2.1C79.1,180.9,79.4,178.8,79.6,176.7z" style="fill: none;"></path><path class="st1" d="M67.9,211.6c-0.7,0.4-1.5,1.1-1.4,1.7c0.1,0.5,0.9,0.9,1.6,1c1.5,0.2,3.1-0.4,4.5-1c1.9-0.8,4-2,6.1-3.2   c-2.3-0.5-4.7-1-7-1.4C70.5,209.8,68.9,211,67.9,211.6z" style="fill: none;"></path><path class="st1" d="M11.7,123.9c0.5,0.5,1,0.9,1.4,1.4c0.4-0.3,0.9-0.6,1.5-0.9c0,0,0.1,0,0.1,0c0,0,0,0,0,0   c-0.6-1.4-0.8-2.8-0.9-4.3l0-0.2c-0.1-1.3-0.3-2.5-0.8-3.5c-0.2-0.4-0.9-1.4-2.3-1.5c-1.2,0-2.5,0.7-2.9,1.6   c-0.2,0.5-0.1,1.1,0.4,2C9,120.1,10.2,122.2,11.7,123.9z" style="fill: none;"></path><path class="st1" d="M18.5,131.8c0.1,0,0.2-0.2,0.2-0.3c0.3-0.9-0.1-2.6-0.2-3.1c-0.4-1.8-1-2-1.3-2.1c-0.1,0-0.4,0-1.4,0.5   c-0.6,0.3-1,0.6-1.4,0.8c-0.5,0.4-0.6,0.6-0.6,0.7c0,0,0.1,0.3,0.7,0.9c0.2,0.2,0.4,0.4,0.6,0.6l0.1,0.1   C16.5,131.2,17.9,132,18.5,131.8z" style="fill: none;"></path><path class="st1" d="M17.2,123.7c0.2,0,0.3,0,0.5,0.1c1.6-2.4,2.4-5,2.9-7.3c0.2-0.9,0.4-1.8,0.4-2.5c0-0.4-0.1-1-0.6-1.3   c-0.4-0.2-1.1-0.2-1.7,0.2c-0.6,0.4-0.9,1-1.2,2.2c-0.8,3.4-0.9,6.1-0.3,8.5C17.2,123.6,17.2,123.6,17.2,123.7z" style="fill: none;"></path><path class="st1" d="M127.8,131.8c0.6-0.3,1.2-0.5,1.8-0.7c4-1.3,8.2-3.1,12.1-5.3c2.6-1.5,4.7-3.9,6.8-6.3l0.4-0.5   c1.3-1.5,2.4-3,3.5-4.5c0.9-1.3,1.9-2.7,3-4c-2.1,0.6-4.3,1.2-6.6,1.5c-4.1,0.6-8.3,3.1-11.4,5.3c-0.7,0.4-1.4,0.9-2.1,1.4   c-2.2,1.4-4.7,2.9-6.1,4.8c-1.8,2.4-3.3,5.1-4.4,7.9C125.7,131.2,126.8,131.4,127.8,131.8z" style="fill: none;"></path><path class="st1" d="M73.3,56.3C73.3,56.3,73.3,56.3,73.3,56.3c2.4-9.4,5.1-19.9,8.3-28.7c0.9-2.6,0.7-6.3,0.5-9.5   c-0.1-1.3-0.2-2.6-0.2-3.8c0-0.3,0-0.7,0-1.2c0-1-0.1-2-0.1-2.9c-1.8,2-3.5,4.2-4.8,6.5c-0.3,0.6-0.5,1.2-0.8,1.8   c-0.2,0.7-0.5,1.4-0.8,2.1c-0.5,0.9-1,1.7-1.6,2.4c-0.6,0.8-1.1,1.6-1.5,2.4c-2.7,5.5-3.7,11.1-3,16.2   C70.1,47.1,71.3,51.9,73.3,56.3C73.3,56.3,73.3,56.3,73.3,56.3z" style="fill: none;"></path><path class="st1" d="M75.6,204.4c-0.6-0.8-1.2-1.6-1.8-2.3c-1.1-1.5-2.2-2.9-3.4-4.2c-0.5-0.5-1.1-1.1-1.7-1.3   c-0.1,0-0.3-0.1-0.4-0.1c-0.3,0-0.5,0.1-0.7,0.2c-0.1,0.2-0.3,0.6,0.1,1.7c0.9,2.9,2.5,5.5,4.6,7.5c2,0.3,3.9,0.7,5.9,1.1   C77.1,206.2,76.2,205.2,75.6,204.4z" style="fill: none;"></path><path class="st1" d="M108,85.7C108,85.7,107.9,85.8,108,85.7c-1.8,0.2-3.4-0.1-4.6-0.8c-0.3-0.2-0.6-0.4-0.9-0.7   c-0.5,4-0.9,8-1.1,12.2C103,92.6,105.3,89,108,85.7z" style="fill: none;"></path><path class="st1" d="M61.5,65.3c0-0.1-0.1-0.3-0.1-0.4c0-0.1-0.1-0.2-0.1-0.3c-0.8-3.8-1.1-8.2-1.3-11.7l-0.1-1.6   c-0.1-2.1-0.7-4.1-1.2-6.1c-0.4-1.6-1-2.6-1.8-4.1c-1.6-2.8-2.3-6.1-3-9.2c-0.2-1-0.4-1.9-0.6-2.9c-0.8-3.2-2-7.1-4.5-9.9l-2.3,4.1   c-0.7,1.3-1.1,2.8-1.4,4.3l-0.1,0.3c-0.9,3.9-1.1,7.5-0.4,10.8c0.1,0.7,0.4,1.4,0.7,2.1c0.2,0.5,0.4,1,0.5,1.5   c0.2,0.8,0.4,1.5,0.5,2.2c0.2,0.8,0.3,1.6,0.6,2.3c1.2,3.4,3.4,6.9,5,9.2C53.7,58.8,57.4,62.4,61.5,65.3z" style="fill: none;"></path><path class="st1" d="M121.5,42.7c1.8-2,2.9-5.5,3.9-8.5c0.4-1.3,0.8-2.5,1.2-3.6c0.1-0.3,0.2-0.7,0.4-1.1c0.3-0.9,0.7-1.8,1-2.7   c-2.3,1.1-4.6,2.4-6.6,4c-0.5,0.4-0.9,0.9-1.3,1.4c-0.5,0.5-0.9,1.1-1.5,1.6c-0.7,0.6-1.5,1.1-2.3,1.6c-0.8,0.5-1.6,1-2.2,1.6   c-4.4,4-7.4,8.7-8.7,13.7c-1.2,4.8-1.4,9.8-1.3,14.2C109.7,57.4,115.4,49.6,121.5,42.7z" style="fill: none;"></path><path class="st1" d="M99,144.6c0.1,0,0.3,0,0.4,0c-1.6-5.1-4.3-9.3-7-13.3c-2.1-3.1-4-6.1-5.4-9.4c-1-2.4-3.5-4.9-5.8-7   c-0.9-0.9-1.8-1.8-2.6-2.6c-0.2-0.2-0.5-0.5-0.8-0.8c-0.7-0.7-1.3-1.3-1.9-1.9c0,2.5,0.2,5,0.7,7.3c0.1,0.6,0.4,1.2,0.6,1.8   c0.3,0.6,0.6,1.3,0.7,2c0.2,0.9,0.3,1.8,0.4,2.7c0.1,0.9,0.2,1.8,0.4,2.6c1.6,5.6,4.5,10.2,8.3,13.4c1.3,1.1,2.7,2.4,4,3.5   c1.3,1.2,2.7,2.5,4.1,3.6C96.2,145.3,97.5,144.6,99,144.6z" style="fill: none;"></path><path class="st1" d="M147.7,89.9c0.6-1.1,1.3-2.2,1.9-3.2c0.2-0.2,0.4-0.6,0.6-1c0.5-0.8,1-1.6,1.4-2.3c-2.4,0.6-4.8,1.4-6.9,2.5   c-0.5,0.3-1,0.6-1.6,1c-0.5,0.4-1.1,0.8-1.8,1.2c-0.8,0.5-1.7,0.8-2.5,1.1c-0.9,0.3-1.7,0.6-2.4,1.1c-5,2.9-8.8,6.8-10.9,11.3   c-2.3,4.8-3.9,9.3-4.8,13.9c6.8-6.2,14.4-13.1,21.6-18.4C144.4,95.6,146.2,92.6,147.7,89.9z" style="fill: none;"></path><path class="st1" d="M50.8,201.4c0.1,0,0.1,0.1,0.2,0.1c0.1-0.1,0.2-0.1,0.2-0.2c-0.9-2.3-2.3-4.2-3.6-5.9   c-0.5-0.6-1.1-1.3-1.7-1.7c-0.5-0.4-1.1-0.5-1.5-0.4c-0.4,0.1-0.8,0.5-0.8,1c-0.1,0.5,0.2,1,0.9,1.8   C46.6,198.7,48.7,200.3,50.8,201.4z" style="fill: none;"></path><path class="st1" d="M142.3,211.5c0.2-1.3,0.4-2.6,0.6-3.9c0.6-3.3,1.1-6.3,0.9-9.6c0-1.1-0.2-2.1-0.4-3.2c-0.3-2-0.7-4.2-0.2-6.4   c0.1-0.3,0.1-0.8,0.2-1.4c0.1-0.9,0.3-1.7,0.4-2.3c-0.2,0.1-0.4,0.3-0.7,0.6c-2.2,2-3.4,4.4-4.7,7.1c-0.3,0.5-0.6,1.1-0.9,1.7   l-0.6,1.1c-1.6,3-3,5.6-3.6,9c-1.1,6.5-1.6,13.9,2.1,19.8c0.7,1.1,1.4,2.3,2,3.4c0.6,1,1.1,2,1.7,3   C140.2,225,141.3,218.7,142.3,211.5z" style="fill: none;"></path><path class="st1" d="M47.7,205.1c0.7-0.1,1.3-0.1,1.9-0.1c0-0.4,0.1-0.8,0.2-1.2c0,0,0,0,0,0c-1.4-0.4-2.6-1.2-3.8-1.9l-0.2-0.1   c-1.1-0.7-2.2-1.3-3.2-1.5c-1-0.2-2,0-2.7,0.6c-0.7,0.6-0.9,1.8-0.5,2.4c0.3,0.4,0.8,0.7,1.8,0.9C43.1,204.7,45.4,205.1,47.7,205.1   z" style="fill: none;"></path><path class="st1" d="M52.9,203.4c0,0-0.2,0.2-0.4,1.1c-0.1,0.5-0.2,0.9-0.2,1.3c0,0.5,0.1,0.6,0.1,0.6c0,0,0.3,0.2,1.3,0.1   c0.3,0,0.5,0,0.8,0l0.2,0c2-0.1,3.3-0.6,3.4-0.9c-0.6-0.7-2.1-1.5-2.6-1.7c-0.7-0.4-1.4-0.6-1.9-0.6   C53.3,203.3,53.1,203.3,52.9,203.4z" style="fill: none;"></path><path class="st0" d="M139.8,33.7c23.6-11.1,48.8-16.8,75.1-16.8c56.9,0,109.5,27,142.6,72.8C333.7,71.8,304.4,62,273.8,62   c-25.4,0-50.2,6.8-71.7,19.6c-16.5,9.8-30.5,22.7-40.5,37.2c-11.4,16.4-17.1,33.9-17,51.9c0,0.8,0.7,1.5,1.5,1.5c0,0,0,0,0,0   c0.8,0,1.5-0.7,1.5-1.5c-0.1-17.4,5.5-34.3,16.5-50.2c9.8-14.1,23.5-26.7,39.6-36.3C224.7,71.6,249,65,273.8,65   c33.3,0,65.2,11.9,89.7,33.4c0.6,0.5,1.4,0.5,2,0c0.6-0.5,0.7-1.3,0.3-1.9c-33.1-51.7-89.6-82.6-150.9-82.6   c-26.7,0-52.4,5.7-76.4,17.1c-0.7,0.4-1.1,1.2-0.7,2C138.2,33.7,139,34,139.8,33.7z" style="fill: #c49d44; fill-opacity: 1;"></path><path class="st0" d="M363.6,287.5c-22.1,19.4-50.1,30.9-79.7,33.1c-29.3,1-55.4-3.1-77.6-12c-18.9-7.6-36.4-21.1-51.8-39.9   c-0.5-0.8-1-1.6-1.5-2.4c-1.7-7-1.6-16.6,0.4-25.9c1.1-0.4,1.9-1.4,1.9-2.7c0-1.6-1.3-2.8-2.8-2.8s-2.8,1.3-2.8,2.8   c0,0.9,0.5,1.7,1.1,2.3c-0.8,4-2,11.3-1.5,19c-3.9-8.8-6.2-18.4-7.7-26c0,0,0-0.1,0-0.1c1.3-5.7,2.6-12.8,3.7-21   c0.2-1.3,0.4-2.5,0.6-3.8c0.6-3.3,1.1-6.6,1-10.1c-0.1-1.2-0.2-2.4-0.4-3.5c-0.3-1.9-0.6-3.7-0.2-5.5c0.1-0.3,0.1-0.9,0.2-1.5   c0.2-1.3,0.6-4.1,0.9-4.8c0.4-0.5,0.4-1.2-0.1-1.7c-0.5-0.5-1.4-0.6-1.9-0.1c-0.7,0.6-1.1,0.8-1.5,1c-0.6,0.3-1.2,0.5-2.3,1.5   c-2.5,2.4-3.9,5-5.3,7.8c-0.3,0.5-0.6,1.1-0.9,1.6l-0.6,1.1c-1.7,3.1-3.2,6-3.9,9.8c-1.1,7-1.7,15,2.5,21.7c0.7,1,1.3,2.1,1.9,3.3   c1.1,2,2.2,4,3.7,5.9c0.1,0.1,0.2,0.2,0.3,0.2c1.3,6.4,3.2,14.1,6.1,21.6c-6.8-9.8-13.1-20.6-18.9-32.6c-0.9-1.9-1.8-3.7-2.6-5.6   c-1-5.7-0.2-14,1.2-19.3c1-0.4,1.7-1.4,1.7-2.6c0-1.6-1.3-2.8-2.8-2.8s-2.8,1.3-2.8,2.8c0,1,0.5,1.8,1.2,2.3   c-0.8,3.5-1.5,8-1.6,12.4c-1.8-4.4-3.5-8.8-5.1-13.4c-0.7-6.2-0.3-13.1,4.9-21.9c0,1.6,0.4,3.3,1.4,4.7c0.9,1.3,2,2.1,3.2,2.3   c0.3,0.1,0.6,0.1,0.9,0.1c1.1,0,2.3-0.4,3.4-1.2c2-1.4,3.2-3.8,3-6.1c0-0.7-0.3-1.4-0.6-2.1c0,0,0.1,0,0.1,0   c2.1,0.2,4.1-0.2,5.6-1.2c2.3-1.5,3.3-4.5,2.2-6.9c-1-2.3-3.9-3.8-6.6-3.4c-0.5,0.1-0.9,0.2-1.4,0.3c0.2-1,0.3-1.9,0.2-2.8   c-0.3-2.7-3.2-5.1-6.4-5.2c-2.4-0.1-4.3,1.6-5.2,4.5c-0.4,1.4-0.2,2.8,0.3,4.2c-1-0.2-2-0.2-3-0.1c-2.5,0.3-5.2,2.1-5.5,4.8   c-0.1,1.7,0.9,3.5,2.6,4.5c1.1,0.7,2.5,1,4,0.9c-3.8,6-5.4,11.4-5.9,16.1c-1.8-5.8-3.4-11.6-4.8-17.5c0,0,0-0.1,0-0.1   c-0.1-3.4-0.1-6.8,0.2-10.3c0.6-0.2,1.1-0.4,1.6-0.7c2.1-1.4,3-4.1,2-6.2c-0.4-0.9-1.2-1.7-2.1-2.2c1-2.2,2-4.4,3.1-6.6   c0.2,1.2,0.6,2.3,1.3,3.4c0.8,1.2,1.9,2,3.1,2.2c0.3,0.1,0.6,0.1,0.8,0.1c1.1,0,2.2-0.4,3.2-1.1c2-1.4,3.1-3.7,2.9-5.9   c0-0.7-0.2-1.3-0.5-1.9c2.1,0.2,4-0.2,5.4-1.1c2.3-1.5,3.2-4.3,2.1-6.6c-0.2-0.4-0.4-0.7-0.6-1c4.2-1.3,8.5-3.2,12.5-5.5   c3.1-1.7,5.3-4.3,7.5-6.9l0.4-0.5c1.3-1.6,2.5-3.2,3.6-4.7c1.8-2.5,3.6-5,6-7.1c0.5-0.4,0.6-1.1,0.3-1.6c-0.3-0.6-0.9-0.8-1.5-0.7   c-1.5,0.3-2.9,0.8-4.3,1.1c-2.3,0.6-4.4,1.2-6.7,1.6c-4.7,0.7-9.2,3.4-12.5,5.7c-0.6,0.4-1.3,0.9-2,1.3c-2.4,1.5-5.1,3.2-6.8,5.4   c-1.4,1.9-2.7,3.9-3.7,6c-0.8-1.9-2.8-3.5-5.1-3.8c0.7-1.5,1.5-3,2.3-4.5l0.9-0.8c7.1-6.5,15.2-13.8,22.7-19.4   c2.6-1.9,4.5-5.2,6.2-8.1c0.6-1.1,1.2-2.1,1.8-3c0.2-0.3,0.4-0.6,0.7-1.1c1.8-2.9,3-4.5,3.6-4.7c0.7-0.2,1.2-0.9,1-1.6   c-0.2-0.7-0.9-1.2-1.6-1c-3.9,0.8-8.3,1.8-12,3.7c-0.8,0.4-1.4,0.9-2,1.3c-0.5,0.4-0.9,0.7-1.4,1c-0.7,0.4-1.4,0.6-2.2,0.9   c-0.9,0.4-1.9,0.7-2.8,1.3c-5.5,3.2-9.6,7.5-12,12.5c-3,6.2-4.8,12-5.5,18.1c-0.9,1.8-1.8,3.5-2.6,5.3c-0.5-3.1-1.5-6.4-2.5-8.6   c0.2-0.4,0.4-0.9,0.4-1.5c0-1.7-1.3-3-3-3s-3,1.3-3,3c0,1.6,1.3,3,3,3c1.4,3.1,2.7,8.6,2.4,11.7c0,0.2,0,0.4,0.1,0.5   c0,0.4-0.1,0.7,0,1.1c-0.3,0.7-0.5,1.3-0.7,2c-0.5,0-1.1,0-1.6,0.1c-2.5,0.3-5.1,2-5.3,4.6c-0.1,1.7,0.8,3.4,2.5,4.4   c0.4,0.2,0.8,0.4,1.3,0.5c-0.9,3.2-1.6,6.3-2.1,9.5c-0.2,0-0.4,0-0.6,0c-0.3,0-0.7,0.1-1,0.2c0.2-0.8,0.2-1.5,0.1-2.2   c-0.1-1.1-0.7-2.1-1.6-3c-0.8-5.8-1.3-11.6-1.7-17.4c-0.5-7.7-0.6-15.2-0.5-22.3c1.2-6.2,3.8-12.1,7.6-17.2   c0.2,0.9,0.5,1.8,1.1,2.6c0.8,1.2,1.8,1.9,2.9,2.1c0.3,0.1,0.5,0.1,0.8,0.1c1,0,2.1-0.4,3.1-1c1.8-1.3,2.9-3.4,2.8-5.5   c0-0.6-0.2-1.1-0.4-1.7c1.9,0.2,3.6-0.2,4.9-1.1c2.1-1.4,3-4.1,2-6.3c-1-2.1-3.6-3.4-6.1-3.1c-0.3,0-0.7,0.1-1,0.2   c0.2-0.8,0.2-1.6,0.1-2.2c-0.3-2.5-2.9-4.7-5.8-4.7c-2.2-0.1-4,1.5-4.7,4.1c-0.3,1.2-0.2,2.4,0.2,3.5c-0.8-0.1-1.6-0.1-2.5,0   c-0.9,0.1-1.7,0.4-2.5,0.9c0.4-2.7,0.9-5.3,1.5-7.9c0.1-0.2,0-0.5,0-0.7l0.5-0.7c5.8-8,11.8-16.3,18.2-23.4   c2.2-2.5,3.4-6.2,4.5-9.4c0.4-1.2,0.8-2.4,1.2-3.4c0.1-0.3,0.3-0.7,0.4-1.2c1.2-3.3,2.1-5.2,2.6-5.5c0.7-0.3,1-1.1,0.7-1.8   c-0.3-0.7-1.1-1-1.8-0.7c0,0,0,0,0,0c-3.7,1.6-7.9,3.6-11.3,6.2c-0.7,0.5-1.2,1.2-1.7,1.7c-0.4,0.5-0.8,0.9-1.2,1.3   c-0.6,0.5-1.3,0.9-2,1.4c-0.9,0.6-1.8,1.1-2.6,1.9c-4.8,4.3-8.1,9.5-9.5,15c-1.6,6.4-1.5,13.1-1.1,18.5c-0.1,0.3-0.1,0.6,0.1,0.9   c0,0.1,0,0.2,0,0.3c-0.6,3.1-1.2,6.2-1.6,9.4c-1.1-4.6-2.9-8.8-4.6-10.9c-1-1.2-1.7-2.5-2.4-4c0.3-0.4,0.6-0.8,0.8-1.2   c0.1-0.3,0.3-0.6,0.4-1c0.9-1.8,1.8-3.8,0.7-8.5c0.5-0.5,0.9-1.3,0.8-2.1C95.7,50,94.4,49,93,49.1c-1.4,0.2-2.5,1.4-2.3,2.9   c0.1,1.1,0.8,1.9,1.8,2.2c0.9,3.8,0.2,5.1-0.5,6.7c0,0.1-0.1,0.1-0.1,0.2c-0.5-1.4-0.9-2.8-1.2-4.2c0-0.2-0.1-0.3-0.2-0.4   c0.3-0.5,0.4-1,0.3-1.6c-0.1-0.7-0.4-1.3-1-1.8s-1.2-0.6-1.9-0.6c-0.7,0.1-1.3,0.4-1.8,1c-0.4,0.5-0.6,1.2-0.6,1.9   c0.1,0.7,0.4,1.3,1,1.8c0.4,0.4,1,0.6,1.5,0.6c0.4,1.6,0.9,3.4,1.6,5.1c-0.1,0-0.1,0-0.2-0.1c-0.3-0.1-0.7-0.3-1-0.4   c-1.5-0.5-2.7-1-3.7-3.1c0.3-0.5,0.4-1,0.4-1.6c-0.1-0.7-0.4-1.3-1-1.8s-1.2-0.6-1.9-0.6c-0.7,0.1-1.3,0.4-1.8,1   c-0.4,0.5-0.6,1.2-0.6,1.9c0.1,0.7,0.4,1.3,1,1.8c0.4,0.3,0.9,0.5,1.5,0.6c1.5,3.1,3.6,3.8,5.2,4.4c0.3,0.1,0.6,0.2,0.9,0.3   c0.5,0.2,1.1,0.3,1.7,0.3c0.2,0,0.5,0,0.7-0.1c0.7,1.6,1.6,3.1,2.7,4.4c2.4,2.9,5.1,11.4,5.1,17.8c0,0.4,0.1,0.7,0.4,0.9   c-1.2,12.2-1.4,25.1-0.6,39c-2.6-7.7-5.8-15.2-9.4-21.6c0.1-0.2,0.1-0.4,0.1-0.6c-0.5-4.5-0.2-9.1,0.9-13.4c0,0,0-0.1,0-0.1   c1.2-0.3,2.1-1.4,2.1-2.7c0-1.6-1.3-2.8-2.8-2.8s-2.8,1.3-2.8,2.8c0,0.9,0.4,1.6,1,2.1c-0.8,3.1-1.2,6.4-1.2,9.7   c-1.9-3.3-3.6-6.8-5.1-10.3c-0.6-1.2-1.1-2.5-1.7-3.7c1.6,0,3-0.3,4.1-1.1c2.1-1.4,3-4.1,2-6.3c-1-2.1-3.6-3.4-6.1-3.1   c-0.3,0-0.7,0.1-1,0.2c0.2-0.8,0.2-1.6,0.1-2.2c-0.2-1.6-1.3-3-2.9-3.9c-0.3-3.1-0.5-6.3-0.7-9.4c0.1-0.1,0.2-0.3,0.2-0.4l0.5-2.2   c2.4-9.8,5.2-20.9,8.5-30.1c1.1-3.2,0.9-7.1,0.6-10.6c-0.1-1.3-0.2-2.5-0.2-3.6c0-0.3,0-0.8,0-1.3c-0.2-3.6,0-5.7,0.4-6.2h0   c0.5-0.5,0.5-1.4,0-1.9c-0.5-0.5-1.4-0.5-1.9,0c0,0,0,0,0,0c-2.9,3-6.2,6.6-8.3,10.4c-0.4,0.8-0.7,1.6-1,2.3   c-0.2,0.6-0.4,1.2-0.7,1.7c-0.4,0.7-0.9,1.4-1.4,2.1c-0.6,0.9-1.2,1.8-1.7,2.8c-2.9,6-4,12.1-3.2,17.8c1,6.8,2.7,12.6,5.5,18.1   c0.1,3.2,0.3,6.4,0.6,9.6c0,0-0.1,0-0.1,0c-1.3,0-2.4,0.5-3.3,1.4c-0.3-0.4-0.6-0.8-0.9-1.2c-1.5-2-3.1-4-4.5-6.1   c-0.8-3.6-1.1-8-1.3-11.2l-0.1-1.6c-0.2-2.3-0.7-4.6-1.3-6.7c-0.5-1.9-1.2-3.1-2.1-4.7c-1.4-2.4-2.1-5.5-2.7-8.5   c-0.2-1-0.4-2-0.7-3c-1-4.1-2.7-9.2-6.5-12.5c-0.3-0.3-0.7-0.4-1.1-0.3c-0.4,0.1-0.7,0.3-0.9,0.7L44,21.9c-0.9,1.6-1.3,3.3-1.7,5   l-0.1,0.3c-1,4.3-1.2,8.3-0.4,11.9c0.2,0.9,0.5,1.7,0.8,2.5c0.2,0.4,0.3,0.9,0.5,1.3c0.2,0.6,0.3,1.2,0.4,1.9   c0.2,0.9,0.3,1.8,0.7,2.7c1.3,3.6,3.6,7.3,5.3,9.8c1.4,2,3.4,4.2,5.8,6.4c-4.5-2.1-9.2-3.6-14-4.7c-0.4-1-1.4-1.7-2.6-1.7   c-1.6,0-2.8,1.3-2.8,2.8s1.3,2.8,2.8,2.8c1,0,1.8-0.5,2.4-1.3c9.8,2.2,19,6.6,26.7,12.8c0,0,0.1,0,0.1,0c-0.1,0.9,0,1.9,0.3,2.8   c-0.8-0.1-1.6-0.1-2.5,0c-2.3,0.3-4.8,1.9-5,4.4c-0.1,1.6,0.8,3.2,2.4,4.1c1.3,0.7,2.9,1,4.6,0.8c0.2,0,0.5-0.1,0.7-0.1   c-0.6,2.1-0.3,4.5,0.9,6.4c0.8,1.2,1.8,1.9,2.9,2.1c0.3,0.1,0.5,0.1,0.8,0.1c1,0,2.1-0.4,3.1-1c1-0.7,1.8-1.7,2.2-2.7   c0.1,0.1,0.1,0.2,0.2,0.4c1.8,4,3.7,8.1,6.1,11.9c5.2,8.5,10,19.9,13.1,30.9c-1-1.7-2-3.3-3-4.8c-2-3-3.8-5.9-5.1-9   c-1.2-3-4-5.6-6.4-7.9c-0.9-0.9-1.8-1.7-2.5-2.5c-0.2-0.2-0.5-0.5-0.9-0.9c-2.4-2.4-3.7-4-3.7-4.6c0,0,0,0,0,0   c0-0.7-0.6-1.4-1.3-1.4c-0.8,0-1.4,0.6-1.4,1.3c0,0,0,0,0,0c-0.1,3.9-0.2,8.5,0.7,12.6c0.2,0.8,0.5,1.6,0.8,2.3   c0.2,0.6,0.5,1.1,0.6,1.6c0.2,0.7,0.3,1.5,0.4,2.4c0.1,1,0.2,2,0.5,3.1c1.8,6.1,4.9,11.2,9.2,14.7c1.3,1.1,2.5,2.2,3.9,3.5   c1.5,1.4,3.1,2.9,4.8,4.2c-0.2,1-0.1,2.1,0.3,3.1c-0.8-0.1-1.6-0.1-2.4,0c-2.3,0.3-4.7,1.9-4.9,4.4c-0.1,1.6,0.8,3.2,2.4,4.1   c1.2,0.7,2.9,1,4.5,0.8c0.2,0,0.5-0.1,0.7-0.1c-0.6,2.1-0.3,4.5,0.9,6.3c0.8,1.1,1.8,1.9,2.9,2.1c0.3,0.1,0.5,0.1,0.8,0.1   c1,0,2.1-0.4,3-1c0.5-0.4,1-0.8,1.4-1.3c1.2,5.8,2.7,11.5,4.3,17.2c-2.5-2.6-5.2-4.5-8.3-5.7c-0.1-1.5-1.3-2.7-2.8-2.7   c-1.6,0-2.8,1.3-2.8,2.8s1.3,2.8,2.8,2.8c0.6,0,1.2-0.2,1.7-0.6c4.8,1.9,8.7,5.5,11.9,11c3.6,11.2,8,22.1,13,32.6   c21.1,43.4,49.3,73.2,81.7,86.2c11.1,4.5,23.1,7.7,35.9,9.8c0.1,0,0.2,0.1,0.3,0.1c12.6,2.1,25.4,2.8,32.5,2.8   c3.4,0,6.8-0.1,10.1-0.4c0,0,0.1,0,0.1,0c0,0,0.1,0,0.1,0c26.8-2,52.2-11.4,73.3-27.3C324.4,342,271.8,369,214.9,369   c-41.9,0-82.5-15-114.3-42.1c-31.5-26.9-52.5-64-59.4-104.6c-0.1-0.8-0.9-1.4-1.7-1.2c-0.8,0.1-1.4,0.9-1.2,1.7   c6.9,41.3,28.4,79,60.4,106.3C131,356.8,172.3,372,214.9,372c61.4,0,117.8-30.9,150.9-82.6c0.4-0.6,0.3-1.5-0.3-1.9   C365,287,364.1,287,363.6,287.5z M137.3,227.3c-0.6-1.1-1.3-2.3-2-3.4c-3.7-5.9-3.1-13.3-2.1-19.8c0.5-3.4,2-6,3.6-9l0.6-1.1   c0.3-0.6,0.6-1.1,0.9-1.7c1.4-2.7,2.6-5,4.7-7.1c0.3-0.3,0.5-0.5,0.7-0.6c-0.1,0.7-0.2,1.4-0.4,2.3c-0.1,0.6-0.2,1.1-0.2,1.4   c-0.4,2.3-0.1,4.4,0.2,6.4c0.2,1.1,0.3,2.2,0.4,3.2c0.1,3.2-0.4,6.3-0.9,9.6c-0.2,1.3-0.4,2.6-0.6,3.9c-1,7.2-2.1,13.5-3.2,18.8   C138.5,229.3,137.9,228.3,137.3,227.3z M127.4,179.4c-0.7,0.5-1.5,0.7-2.1,0.6c-0.7-0.1-1.2-0.7-1.5-1.2c-1.5-2.2-1.2-5.2,0.7-7.2   c0.4,0.1,0.8,0.2,1.2,0.2c0,0,0,0,0,0c0.2,0,0.3,0,0.5,0c0,0,0.1,0.1,0.1,0.1c1.5,0.8,2.8,2.5,2.9,3.8   C129.4,177.1,128.6,178.5,127.4,179.4z M129.4,166.5c1.2-0.9,2.3-1.7,3.6-1.8c1.6-0.2,3.3,0.6,3.9,1.9c0.5,1.2,0,2.7-1.2,3.5   c-1,0.6-2.4,0.9-3.9,0.7c-0.9-0.1-1.8-0.4-2.7-0.7c0.4-0.6,0.6-1.2,0.6-1.9C129.8,167.6,129.6,167,129.4,166.5z M122.6,159.7   c0.2-0.8,0.9-2.6,2.4-2.6c0,0,0,0,0.1,0c1.8,0.1,3.6,1.4,3.8,2.8c0.2,1.3-0.5,3.5-1.4,4.7c-0.5-0.2-1-0.3-1.5-0.3c0,0,0,0,0,0   c-0.5,0-0.9,0.1-1.3,0.2c0,0,0-0.1-0.1-0.1C123.3,163.3,122.1,161.3,122.6,159.7z M115.8,170c-0.8-0.5-1.3-1.2-1.3-1.9   c0.1-1,1.5-2.1,3.1-2.3c1.6-0.2,3.3,0.2,4.7,0.7c-0.3,0.5-0.4,1-0.5,1.6c0,0.6,0.1,1.2,0.4,1.7c-0.9,0.4-2,0.7-3.1,0.8   C117.9,170.7,116.7,170.5,115.8,170z M125.5,101.7c2.2-4.5,6-8.4,10.9-11.3c0.7-0.4,1.6-0.7,2.4-1.1c0.8-0.3,1.7-0.6,2.5-1.1   c0.7-0.4,1.2-0.8,1.8-1.2c0.5-0.4,1-0.8,1.6-1c2.1-1.1,4.5-1.8,6.9-2.5c-0.5,0.7-0.9,1.5-1.4,2.3c-0.2,0.4-0.4,0.7-0.6,1   c-0.6,1-1.2,2-1.9,3.2c-1.5,2.7-3.3,5.7-5.4,7.3c-7.2,5.3-14.8,12.2-21.6,18.4C121.6,111,123.1,106.5,125.5,101.7z M119.5,148   c-0.7,0.5-1.4,0.7-2,0.6c-0.6-0.1-1.1-0.7-1.4-1.1c-1.4-2.1-1.1-4.9,0.6-6.8c0.4,0.1,0.8,0.2,1.2,0.2c0,0,0,0,0,0   c0.2,0,0.3,0,0.5,0c0,0,0.1,0.1,0.1,0.1c1.4,0.7,2.7,2.4,2.8,3.6C121.4,145.8,120.6,147.2,119.5,148z M129,123.5   c1.4-1.8,3.9-3.4,6.1-4.8c0.7-0.5,1.5-0.9,2.1-1.4c3.2-2.1,7.3-4.6,11.4-5.3c2.3-0.3,4.5-0.9,6.6-1.5c-1.1,1.3-2,2.6-3,4   c-1.1,1.5-2.2,3.1-3.5,4.5l-0.4,0.5c-2,2.4-4.2,4.8-6.8,6.3c-3.9,2.1-8,4-12.1,5.3c-0.6,0.2-1.2,0.4-1.8,0.7   c-1-0.4-2.1-0.6-3.1-0.4C125.7,128.5,127.2,125.9,129,123.5z M121.5,135.7c1.1-0.9,2.2-1.6,3.4-1.7c1.5-0.2,3.1,0.6,3.6,1.7   c0.5,1.1,0,2.5-1.1,3.3c-0.9,0.6-2.3,0.8-3.7,0.7c-0.9-0.1-1.7-0.3-2.5-0.6c0.3-0.5,0.6-1.2,0.6-1.8   C121.8,136.7,121.7,136.2,121.5,135.7z M114.9,129.6c0.1-0.2,0.3-0.4,0.3-0.7c0-0.1,0-0.3,0-0.4c0.3-0.8,1-1.8,2.1-1.8   c1.7,0.1,3.4,1.3,3.5,2.7c0.2,1.3-0.4,3.3-1.4,4.4c-0.4-0.2-0.9-0.3-1.4-0.3c0,0,0,0,0,0c-0.4,0-0.9,0.1-1.3,0.2c0,0,0,0,0-0.1   C115.7,132.7,114.7,131,114.9,129.6z M116.9,79.8c1-0.8,2-1.4,3-1.5c1.3-0.2,2.8,0.5,3.3,1.6c0.4,1,0,2.2-1,2.9   c-0.8,0.5-2,0.8-3.3,0.6c-0.8-0.1-1.5-0.3-2.2-0.5c0.3-0.5,0.5-1,0.5-1.6C117.1,80.7,117.1,80.2,116.9,79.8z M114.8,91   c-0.6,0.4-1.3,0.6-1.8,0.5c-0.5-0.1-1-0.6-1.2-1c-1.3-1.9-1-4.4,0.5-6.1c0.3,0.1,0.7,0.2,1,0.2c0,0,0,0,0,0c0.1,0,0.3,0,0.4,0   c0,0,0.1,0.1,0.1,0.1c1.3,0.7,2.4,2.2,2.5,3.2C116.5,89,115.9,90.2,114.8,91z M110.8,73.7c0.2-0.7,0.8-2.2,2-2.2c0,0,0,0,0,0   c1.5,0,3,1.2,3.2,2.4c0.1,1.1-0.4,2.9-1.2,4c-0.4-0.2-0.8-0.2-1.3-0.2h0c0,0,0,0,0,0c-0.4,0-0.7,0.1-1.1,0.2c0,0,0,0,0,0   C111.3,76.7,110.4,75,110.8,73.7z M105.4,50.8c1.2-5,4.2-9.7,8.7-13.7c0.7-0.6,1.4-1.1,2.2-1.6c0.8-0.5,1.6-1,2.3-1.6   c0.6-0.5,1.1-1.1,1.5-1.6c0.4-0.5,0.9-1,1.3-1.4c1.9-1.5,4.2-2.8,6.6-4c-0.3,0.8-0.7,1.7-1,2.7c-0.2,0.5-0.3,0.8-0.4,1.1   c-0.4,1.1-0.8,2.3-1.2,3.6c-1,3-2.1,6.5-3.9,8.5c-6.1,6.8-11.8,14.6-17.3,22.2C104,60.5,104.2,55.6,105.4,50.8z M106.3,79.1   c1.3-0.2,2.7,0.2,3.9,0.6c-0.2,0.4-0.3,0.9-0.3,1.3c0,0.5,0.1,1,0.3,1.4c-0.8,0.3-1.7,0.5-2.6,0.6c-1.1,0.1-2.1,0-2.9-0.5   c-0.7-0.4-1.1-1-1-1.6C103.7,80.2,105,79.3,106.3,79.1z M102.5,84.3c0.3,0.2,0.6,0.5,0.9,0.7c1.3,0.7,2.9,1,4.6,0.8   c0,0,0.1,0,0.1,0c-2.7,3.2-5,6.8-6.7,10.7C101.6,92.3,102,88.2,102.5,84.3z M51.7,55.9c-1.6-2.4-3.8-5.9-5-9.2   c-0.3-0.7-0.4-1.5-0.6-2.3c-0.1-0.7-0.3-1.5-0.5-2.2c-0.2-0.5-0.3-1-0.5-1.5c-0.3-0.7-0.5-1.4-0.7-2.1c-0.7-3.3-0.5-6.9,0.4-10.8   l0.1-0.3c0.4-1.5,0.7-3,1.4-4.3l2.3-4.1c2.5,2.8,3.7,6.7,4.5,9.9c0.2,0.9,0.4,1.9,0.6,2.9c0.7,3.2,1.4,6.4,3,9.2   c0.9,1.5,1.4,2.4,1.8,4.1c0.6,2.1,1.1,4.1,1.2,6.1l0.1,1.6c0.2,3.5,0.5,7.9,1.3,11.7c0,0.1,0,0.2,0.1,0.3c0,0.1,0.1,0.3,0.1,0.4   C57.4,62.4,53.7,58.8,51.7,55.9z M69.8,83.5c-0.8,0.3-1.7,0.5-2.6,0.6c-1.1,0.1-2.1,0-2.9-0.5c-0.7-0.4-1.1-1-1-1.6   c0.1-0.9,1.3-1.8,2.6-1.9c1.3-0.2,2.7,0.2,3.9,0.6c-0.2,0.4-0.3,0.9-0.3,1.3C69.5,82.6,69.6,83.1,69.8,83.5z M69.3,41.7   c-0.7-5.1,0.3-10.7,3-16.2c0.4-0.8,0.9-1.6,1.5-2.4c0.5-0.8,1.1-1.6,1.6-2.4c0.4-0.7,0.6-1.4,0.8-2.1c0.2-0.7,0.4-1.3,0.8-1.8   c1.3-2.2,3-4.4,4.8-6.5c0,0.9,0,1.9,0.1,2.9c0,0.5,0,0.9,0,1.2c0,1.2,0.1,2.5,0.2,3.8c0.2,3.2,0.5,6.8-0.5,9.5   c-3.2,8.9-5.8,19.3-8.2,28.8c0,0-0.1,0-0.1,0c0,0,0,0,0,0C71.3,51.9,70.1,47.1,69.3,41.7z M70.5,74.7c0.2-0.7,0.8-2.2,2-2.2   c1.5,0,3,1.2,3.2,2.4c0.1,1.1-0.4,2.9-1.2,4c-0.4-0.2-0.8-0.2-1.3-0.2c-0.4,0-0.8,0.1-1.1,0.2c0,0,0,0,0,0   C71,77.8,70.1,76,70.5,74.7z M74.5,92.1c-0.6,0.4-1.3,0.6-1.8,0.5c-0.5-0.1-1-0.6-1.2-1c-1.3-1.9-1-4.4,0.6-6.1   c0.3,0.1,0.7,0.2,1,0.2c0,0,0,0,0,0c0.1,0,0.3,0,0.4,0c0,0,0.1,0.1,0.1,0.1c1.3,0.7,2.4,2.2,2.5,3.2C76.2,90.1,75.6,91.3,74.5,92.1   z M76.3,83.8c0.3-0.5,0.5-1,0.5-1.6c0-0.5-0.1-0.9-0.3-1.4c1-0.8,2-1.4,3-1.5c1.3-0.2,2.8,0.5,3.3,1.6c0.4,1,0,2.2-1,2.9   c-0.8,0.5-2,0.8-3.3,0.6C77.8,84.3,77,84.1,76.3,83.8z M107.2,137.1c0.1-1,1.4-2,2.9-2.2c1.5-0.2,3.1,0.2,4.4,0.7   c-0.2,0.5-0.4,1-0.4,1.5c0,0.6,0.1,1.1,0.3,1.6c-0.9,0.4-1.9,0.6-2.9,0.7c-1.2,0.1-2.4,0-3.2-0.5   C107.7,138.5,107.2,137.8,107.2,137.1z M96.2,158.2c-0.8,0.3-1.6,0.5-2.5,0.6c-1.1,0.1-2.1,0-2.8-0.5c-0.7-0.4-1.1-1-1-1.6   c0.1-0.9,1.3-1.7,2.6-1.9c1.3-0.2,2.7,0.2,3.8,0.6c-0.2,0.4-0.3,0.9-0.3,1.3C95.9,157.3,96,157.8,96.2,158.2z M95.3,146.6   c-1.4-1.2-2.7-2.4-4.1-3.6c-1.3-1.2-2.6-2.4-4-3.5c-3.8-3.2-6.7-7.8-8.3-13.4c-0.2-0.8-0.3-1.7-0.4-2.6c-0.1-0.9-0.2-1.8-0.4-2.7   c-0.2-0.7-0.5-1.4-0.7-2c-0.3-0.6-0.5-1.2-0.6-1.8c-0.5-2.3-0.7-4.9-0.7-7.3c0.6,0.6,1.2,1.3,1.9,1.9c0.3,0.3,0.6,0.6,0.8,0.8   c0.8,0.9,1.7,1.7,2.6,2.6c2.2,2.2,4.7,4.6,5.8,7c1.4,3.3,3.3,6.3,5.4,9.4c2.6,4,5.3,8.2,7,13.3c-0.1,0-0.3,0-0.4,0   C97.5,144.6,96.2,145.3,95.3,146.6z M96.8,149.5c0.2-0.7,0.8-2.2,2-2.2c1.5,0,3,1.2,3.1,2.3c0.1,1.1-0.4,2.9-1.2,3.9   c-0.4-0.1-0.8-0.2-1.3-0.2c-0.4,0-0.8,0.1-1.1,0.2c0,0,0,0,0,0C97.4,152.5,96.5,150.8,96.8,149.5z M100.8,166.7   c-0.6,0.4-1.2,0.6-1.7,0.5c-0.5-0.1-1-0.6-1.2-1c-1.2-1.8-1-4.4,0.5-6.1c0.3,0.1,0.7,0.2,1,0.2c0,0,0,0,0,0c0.1,0,0.3,0,0.4,0   c0,0,0.1,0,0.1,0.1c1.2,0.6,2.4,2.1,2.5,3.2C102.5,164.7,101.9,165.9,100.8,166.7z M104.8,159.1c-0.7-0.1-1.5-0.3-2.2-0.5   c0.3-0.5,0.5-1,0.5-1.6c0-0.5-0.1-0.9-0.2-1.4c1-0.8,1.9-1.4,3-1.5c1.3-0.2,2.8,0.5,3.2,1.5c0.4,0.9,0,2.2-1,2.9   C107.3,159,106.1,159.2,104.8,159.1z" style="fill: #c49d44; fill-opacity: 1;"></path><path class="st0" d="M41.4,207.1c-0.8,0.5-1.4,1.1-1.8,1.8c-0.6,1.1-0.6,2.3-0.1,3.2c0.5,1,1.6,1.6,3,1.7c0.3,0,0.5,0,0.8,0   c3.4,0,6.8-1.6,9.2-4.4c0.1-0.1,0.1-0.2,0.2-0.3c0.3,0,0.6,0,0.9,0c0,0,0.1,0,0.1,0c0.3,0,0.6,0,0.9,0l0.2,0c1.5-0.1,4-0.4,5.3-1.8   c2.6,0.2,5.3,0.4,8.1,0.8c-0.6,0.4-1.1,0.8-1.5,1.1c-1.9,1.1-3,2.8-2.7,4.5c0.3,1.9,2.2,3,3.9,3.2c0.3,0,0.6,0,0.9,0   c1.8,0,3.5-0.6,5-1.3c2.8-1.2,6-3.1,8.7-4.8c9.5,2.6,18.2,6.7,23.3,12.6c0.9,1.3,1.8,2.7,2.6,4c0,0,0,0,0,0   c0.1,0.3,0.3,0.6,0.5,0.8c1.1,1.7,2.2,3.5,3.3,5.2c-3.5-1.8-7.6-2.8-12-2.8c-0.7,0-1.4,0.6-1.4,1.4c0,0.7,0.6,1.3,1.3,1.3   c0,0,0,0,0,0c7.5,0,14.1,3.2,17.2,8.4c2.2,3.5,4.1,6.8,5.8,9.6c4.3,7.2,9.5,13.9,15.3,20.2c-6.5-3.8-13.4-7.5-20.3-10.8   c0-0.2-0.1-0.4-0.2-0.6c-2-2.8-3.7-5.1-4.3-7.9c0.3-0.3,0.5-0.7,0.7-1.1c0.7-1.6,0.5-3.4-0.5-4.8c-0.8-1.2-2.9-2.7-4.8-2   c-1.9,0.7-2.5,3.2-2.3,4.7c0.1,1.4,0.6,2.6,1.5,3.4c0.8,0.7,1.8,1.1,2.7,1.1c0.1,0,0.2,0,0.3,0c0.5,1.9,1.4,3.6,2.5,5.3   c-0.2-0.1-0.4-0.2-0.6-0.3c-0.1-0.6-0.6-1-1.3-1.1c-0.3,0-0.6,0-0.9,0.1c-2.4-1.1-4.8-2.1-7.2-3.1c-0.2-0.3-0.6-0.5-1-0.6   c-0.1,0-0.3,0-0.4,0c-0.8-0.3-1.5-0.6-2.3-0.9c-1.3-2.1-1.9-4.7-1.6-7.2c0.5-0.2,0.9-0.5,1.3-0.9c1.2-1.2,1.8-3,1.5-4.6   c-0.3-1.4-1.6-3.6-3.6-3.8c-2.1-0.1-3.5,1.9-4,3.4c-0.4,1.3-0.4,2.6,0,3.7c0.4,1,1.2,1.8,2.2,2.2c-0.2,1.9,0.1,3.9,0.7,5.7   c-3.7-1.4-7.3-2.7-10.5-3.7c-2.6-2.2-4.3-5.5-4.5-8.9c0.8-0.4,1.4-1.1,1.8-2c0.7-1.6,0.5-3.4-0.5-4.8c-0.8-1.2-2.9-2.7-4.7-2.1   c-2,0.6-2.5,3.1-2.4,4.7v0c0.1,1.4,0.6,2.6,1.5,3.4c0.5,0.5,1.1,0.8,1.7,1c0.2,2.6,1,5.2,2.4,7.3c-2.3-0.6-4.3-1-6.1-1.3   c-0.1-2-2.3-3.3-3.7-3.7c-1.4-0.4-2.7-0.3-3.8,0.3c-1.4,0.7-2.3,2.2-2.2,3.7c0.1,1,0.6,1.9,1.4,2.6c1,0.9,2.2,1.3,3.5,1.3   c0.5,0,0.9-0.1,1.4-0.2c0.8-0.2,1.8-0.8,2.5-1.6c2.9,0.3,6.5,1.2,10.5,2.4c-2.1,0.6-4.3,1.6-6.5,3.1c-1.5-0.5-3.2,0.2-4.3,0.9   c-1.1,0.8-1.9,1.9-2.1,3c-0.4,1.5,0.2,3.1,1.4,3.9c0.6,0.4,1.4,0.6,2.2,0.6c0.2,0,0.4,0,0.7,0c1.7-0.2,3.2-1.4,3.8-2.9   c0.4-0.9,0.6-2.4,0.2-3.7c3.6-2.4,7-3.3,10.5-3c0.1,0,0.1,0,0.1,0c2.2,0.8,4.4,1.6,6.7,2.5c-2.2,0.7-4.3,1.9-5.9,3.5   c-1.3-0.2-2.7,0.2-3.6,0.7c0,0,0,0,0,0c-1.2,0.7-2.1,1.7-2.5,2.8c-0.5,1.5-0.1,3.1,0.9,4.1c0.7,0.6,1.6,0.9,2.6,0.9   c0.1,0,0.1,0,0.2,0c1.7-0.1,3.3-1,4.2-2.5c0.6-1.1,1-3,0.3-4.4c2.3-1.9,5.4-3.2,8.2-3.3c1.7,0.7,3.5,1.5,5.3,2.3   c-1.5,0.7-2.9,1.6-3.8,2.6c-1.5,0.1-2.9,1.2-3.6,2.1c-0.8,1.1-1.3,2.4-1.2,3.5c0.1,1.6,1.1,2.9,2.5,3.4c0.4,0.1,0.7,0.2,1.1,0.2   c0.6,0,1.2-0.1,1.8-0.4c1.6-0.7,2.6-2.2,2.9-3.9c0.1-1-0.1-2.6-0.9-3.7c1.2-1,3.1-1.9,4.7-2.3c13.4,6.2,26.9,13.5,35.5,19.3   c9.6,9.3,20.1,17.8,30,25.4c20.1,15.6,44.3,24.9,68,26.2c0,0,0.1,0,0.1,0c0.7,0,1.3-0.6,1.3-1.3c0-0.7-0.5-1.4-1.3-1.4   c-23.2-1.3-46.9-10.4-66.5-25.7c-3.3-2.5-6.6-5.2-10-7.9c-2.6-2.8-6.4-5.9-10.3-9.2c-2.8-2.3-5.6-4.6-8.3-7   c-9.1-8.7-17.4-18.2-23.7-28.6c-1.7-2.8-3.6-6-5.8-9.5c0,0,0,0,0,0c0,0,0,0,0,0c-2.7-4.3-5.7-9.1-8.9-14c-0.9-3.9-1.2-8-0.6-12   c0.1-0.7-0.4-1.4-1.2-1.5c-0.7-0.1-1.4,0.4-1.5,1.2c-0.3,2.3-0.4,4.7-0.2,7c-2.2-3.3-4.4-6.6-6.7-9.9l-1.9-17.9   c-0.1-0.8-0.3-2.6-1.7-3.5c-1.5-0.9-3.4-0.2-4.3,1c-0.8,1-1,2.2-1.1,3.4c-0.2,1.5-0.2,3.1-0.1,4.6c-1.2-1.5-2.3-3-3.5-4.4   c0,0,0,0,0,0c0,0,0,0,0,0c-1.8-2.2-3.5-4.3-5.3-6.3c-1.2-3.3-0.8-7.1-0.4-11.1c0.4-3.5,0.8-7.2,0-10.6c-0.5-2.3-1.8-3.7-3.5-3.8   c-1.3-0.1-2.5,0.7-3.5,2.1c-1.6,2.5-2.2,5.8-1.7,9.3c-3.2-5.7-6.2-12.4-7.8-19.8c0.2-0.2,0.3-0.4,0.4-0.6c0.5-1.2,0.5-2.8,0.5-4.2   c0-1.1-0.2-2-0.5-2.8c1.6-1.8,3.5-3.9,4.4-6.3l0.1-0.3c0.3-0.8,0.6-1.6,0.7-2.5c0.1-1.6-0.8-3.2-1.7-4.1c-1.1-1.1-2.6-1.6-3.9-1.1   c-1.3,0.4-2,1.4-2.3,2.3c-0.6-1.2-1.5-2.2-2.7-2.7c-1.9-0.9-4.3-0.1-5.3,1.6c-0.7,1.3-0.5,2.8-0.2,4c0,0.1,0.1,0.3,0.1,0.4   c-0.7-0.4-1.3-0.6-1.9-0.6c-0.9-0.1-1.7,0.2-2.4,0.8c-0.8,0.7-1.4,1.9-1.4,3c-0.1,1.9,1.1,3.3,2.1,4.4c1.6,1.6,3.7,2.8,6.4,3.7   c0.1,0,0.2,0,0.3,0.1c0.1,0.3,0.2,0.6,0.4,0.9c0.1,0.3,0.3,0.6,0.4,0.8l0.1,0.1c0.9,1.7,2.2,3.6,3.8,4.1c2,8.5,5.6,16.2,9.3,22.5   c-5.9-5.7-12.4-11.3-19.7-16.9c0-0.1,0-0.2-0.1-0.3c-4.6-8.2-7.9-16-10.1-23.5c-0.1-4.5,1.9-9.1,3.8-13.6c0.5-1.2,1-2.3,1.5-3.4   c0.4-1.1,0.8-2.2,0.7-3.5c-0.1-1.5-1.2-3.1-2.9-3.4c-1-0.2-2.1,0.2-3.2,1c-1.3,1-2.3,2.4-3.1,4.1c0-1.9,0-3.8,0.2-5.7   c0.2-0.1,0.4-0.2,0.6-0.3c1.1-0.7,2-2.1,2.7-3.4c0.5-1,0.9-1.9,1-2.7c2.8-0.9,5.2-2.5,7-3.8c0.8-0.6,1.7-1.3,2.4-2.2   c0.8-1.2,1.2-2.5,0.9-3.7c-0.3-1.5-1.6-2.7-3.1-3c-1.4-0.2-2.7,0.4-3.6,1.1c0.1-1.5-0.3-3-1.2-4c-1.4-1.6-4-2.2-5.7-1.2   c-1.4,0.8-2,2.3-2.3,3.4c-0.1,0.2-0.1,0.5-0.2,0.7c-0.5-0.8-1.1-1.4-1.8-1.9c-1-0.6-2.3-0.7-3.2-0.3c-1,0.5-1.6,1.5-1.8,3   c-0.4,3.6,1,7.4,3.9,10.1c0.1,0.1,0.2,0.1,0.3,0.2c0,0.3-0.1,0.6-0.1,1c0,0.3,0,0.6,0,0.9v0.2c0,1.6,0.2,4.4,1.8,5.6   c0,0,0,0.1,0,0.1c-0.2,2.5-0.2,5-0.1,7.6c-0.4-0.3-0.9-0.6-1.4-0.7c-1.4-0.2-2.8,0.7-3.4,2.2c-0.4,1.1-0.3,2.3-0.2,3.2   c0.9,5.6,4,10.7,8.5,14c1.8,5.9,4.3,12.1,7.6,18.4c-0.6-0.5-1.2-0.9-1.9-1.4c-1.6-1.2-3.1-2.3-4.7-3.5c-0.9-2.5-1.5-5.2-2.1-7.9   l-0.3-1.4c-0.2-0.8-0.4-1.7-0.9-2.6c-0.8-1.2-2.1-1.9-3.3-1.7c-1.2,0.2-2.3,1.2-2.7,2.5c-0.3,1-0.2,2-0.1,2.9c0,0.2,0,0.4,0,0.7   c-4-3.4-7.8-7-11.3-11.2c0.3-0.3,0.5-0.7,0.6-1.1c0.4-1.4,0.1-3.1-0.1-4.4c-0.2-1.1-0.6-2-1.1-2.7c1.8-2.8,2.7-5.8,3.3-8.1   c0.3-1.1,0.5-2.2,0.5-3.4c-0.1-1.5-0.8-2.7-2-3.4c-1.3-0.8-3.2-0.7-4.6,0.2c-1.5,1-2,2.7-2.3,3.8c0,0,0,0,0,0   c-1-1.3-2.5-2.2-4.2-2.2c-2-0.1-4.6,1.1-5.4,3.3c-0.7,1.6-0.1,3.1,0.5,4.3c0.2,0.3,0.3,0.6,0.5,0.9c-0.2,0-0.3-0.1-0.5-0.1   c-1-0.2-2-0.2-2.8,0c-0.9,0.2-2.2,0.9-2.7,2.1c-0.4,0.8-0.6,2,0.6,3.5c2.1,2.7,5.6,4.3,9.6,4.3c0.3,0,0.6,0,1,0   c0.2,0,0.3-0.1,0.5-0.1c0.2,0.3,0.4,0.5,0.6,0.8c0,0,0,0,0,0c0.2,0.2,0.4,0.5,0.6,0.7l0.1,0.1c0.9,0.8,2.8,2.5,4.8,2.6   c3.4,4.1,7.1,7.8,11,11.2c-1.8-0.2-3.7-0.1-5.8,0.2c-2.2,0.4-3.9,1.7-4.1,3.2c-0.1,0.8,0,2.4,2.5,3.7c1.1,0.6,2.3,0.8,3.3,0.9   l16.6,2.7c0.1,0,0.1,0,0.2,0c0.3,0,0.5-0.1,0.7-0.2c0.6,0.5,1.3,0.9,1.9,1.4c1.4,1.1,2.9,2.1,4.3,3.2c3,2.3,5.9,4.5,8.7,6.8   c-0.6,0.3-1.1,0.7-1.4,1.3c-0.6,1.1-0.3,2.2-0.1,3c0.2,0.5,0.4,1,0.8,1.5c-7.4-2.5-15.6-4.1-24.3-4.6c-0.1-0.2-0.3-0.5-0.5-0.6   c-0.9-0.9-2.4-1.5-3.7-2c-1-0.4-2-0.6-2.8-0.6c-1.1-2.2-2.3-4.7-4.2-6.4l-0.2-0.2c-0.6-0.6-1.3-1.2-2.1-1.6c-1.5-0.7-3.2-0.5-4.4,0   c-1.5,0.6-2.4,1.8-2.5,3.2c-0.1,1.3,0.6,2.3,1.2,3c-1.4,0.1-2.6,0.6-3.5,1.5c-1.5,1.5-1.7,4-0.5,5.5c1,1.2,2.4,1.5,3.7,1.7   c0.1,0,0.3,0,0.4,0.1c-0.6,0.5-1,1-1.3,1.5c-0.4,0.8-0.4,1.7-0.1,2.6c0.4,1,1.2,2,2.2,2.4c0.6,0.3,1.2,0.4,1.8,0.4   c1.1,0,2.2-0.4,3.1-0.8c2.1-0.9,4-2.4,5.8-4.6c0.1-0.1,0.1-0.2,0.2-0.3c0.1,0,0.2,0,0.3,0c0.2,0,0.5,0,0.7,0c0,0,0,0,0,0   c0.3,0,0.6-0.1,0.9-0.1l0.2,0c1.9-0.2,4.1-0.7,5.1-1.9c5.7,0.4,11.2,1.2,16.4,2.4c-2.1,0.4-3.7,1.8-4.2,3.6c-0.7,2.6,1.2,5.1,3.4,6   c1.3,0.5,2.6,0.7,3.9,0.7c0.8,0,1.6-0.1,2.3-0.1c2.5-0.2,5.8-0.5,8.9-0.8c2.5-0.3,5.1-0.5,7.3-0.7c6.1,3.7,11.5,8.2,15.8,13.6   c0.1,0.1,0.1,0.1,0.2,0.2c-0.6-0.2-1.2-0.4-1.9-0.3c-1.2,0.2-2.2,1.2-2.6,2.5c-0.2,0.9-0.2,1.9,0.2,3c1.1,3.1,3.9,5.5,8.4,7.2   c3.3,1.2,6.3,3.3,8.4,5c0.2,0.1,0.4,0.2,0.6,0.2c0.4,0.6,0.8,1.1,1.2,1.7c-4.6-2.9-10.1-5.1-15.9-6.8c-0.1-0.4-0.4-0.8-0.8-1   c-2-0.9-3.8-2.4-5.9-5c-0.6-0.7-1.2-1.5-1.8-2.3c-1.1-1.5-2.3-3-3.6-4.4c-0.7-0.8-1.6-1.6-2.8-2c-1.5-0.5-3.2-0.1-4.1,1.1   c-1.2,1.5-0.6,3.5-0.4,4.2c0.7,2.2,1.7,4.3,3.1,6.2c-2.6-0.3-5.1-0.6-7.6-0.7c-0.1-0.3-0.2-0.6-0.4-0.8c-0.8-1.1-2.3-1.9-3.5-2.5   c-1-0.5-1.9-0.8-2.8-0.8c-1-2.8-2.6-5-4.1-6.8c-0.7-0.8-1.4-1.6-2.3-2.3c-1.2-0.8-2.5-1-3.7-0.7c-1.5,0.4-2.6,1.8-2.8,3.3   c-0.2,1.4,0.5,2.6,1.2,3.5c-1.5-0.1-2.9,0.5-4,1.4c-1.6,1.5-2,4.1-1,5.8c0.8,1.4,2.3,1.9,3.5,2.2C40.9,206.9,41.2,207,41.4,207.1z    M112,249.9c-0.2,0.4-0.4,0.6-0.6,0.7c-0.3,0.2-0.9,0-1.2-0.3c-0.4-0.4-0.7-1-0.7-1.8c0,0,0,0,0,0c-0.1-0.9,0.3-1.9,0.6-2   c0,0,0.1,0,0.1,0c0.4,0,1.3,0.5,1.7,1.1C112.3,248.3,112.4,249.2,112,249.9z M81.2,235.8c-0.2,0.4-0.4,0.6-0.6,0.7   c-0.3,0.1-0.9,0-1.2-0.3c-0.4-0.4-0.6-1-0.7-1.8c-0.1-0.9,0.3-1.9,0.6-2c0.3-0.1,1.3,0.4,1.8,1.1C81.4,234.1,81.5,235.1,81.2,235.8   z M71.3,246.6c-0.8,0.2-1.8,0-2.4-0.6c-0.3-0.3-0.5-0.6-0.5-0.9c0-0.4,0.3-0.9,0.8-1.1c0.3-0.1,0.7-0.2,1.1-0.2c0.3,0,0.6,0,1,0.1   l0,0c0.9,0.2,1.8,0.9,1.8,1.3C72.9,245.6,72,246.4,71.3,246.6z M77.8,257.6c-0.3,0.7-1.1,1.3-1.8,1.4c-0.4,0.1-0.7,0-1-0.2   c-0.3-0.2-0.5-0.7-0.3-1.2c0.1-0.5,0.5-1.1,1.1-1.5c0,0,0,0,0,0c0.5-0.4,1.3-0.6,1.7-0.6c0.1,0,0.2,0,0.3,0.1c0,0,0,0,0,0   C78,255.8,78.1,256.9,77.8,257.6z M91.3,262.7c-0.4,0.7-1.2,1.2-2,1.2c-0.4,0-0.7-0.1-0.9-0.3c-0.3-0.2-0.4-0.8-0.2-1.3   c0.2-0.5,0.7-1,1.3-1.4c0.8-0.4,1.8-0.6,2.1-0.3C91.8,260.9,91.7,262,91.3,262.7z M97.3,243.3C97.3,243.3,97.3,243.3,97.3,243.3   c-0.4,0-0.8-0.4-1-0.8c-0.2-0.5-0.2-1.2,0-1.9c0.3-0.8,1-1.6,1.3-1.6c0,0,0,0,0,0c0.4,0,1.1,0.9,1.2,1.7c0.2,0.8-0.1,1.7-0.7,2.2   C97.9,243.1,97.5,243.3,97.3,243.3z M104.4,265.8c-0.1,0.8-0.7,1.6-1.4,1.9c-0.4,0.2-0.7,0.2-1,0.1c-0.4-0.1-0.7-0.6-0.7-1.1   c0-0.6,0.2-1.2,0.7-1.8l0,0c0.5-0.6,1.3-1.1,1.7-1.1c0,0,0.1,0,0.1,0C104.1,263.9,104.5,265,104.4,265.8z M58.5,146.3   c-2-0.7-3.7-1.7-4.9-2.8c-0.7-0.7-1.4-1.5-1.4-2.3c0-0.4,0.2-0.8,0.5-1.1c0.1-0.1,0.3-0.2,0.4-0.2c0,0,0,0,0,0c0.3,0,0.6,0.2,1,0.5   c1.4,0.9,2.4,2.3,3.2,3.8C57.8,144.9,58.2,145.6,58.5,146.3C58.6,146.2,58.6,146.3,58.5,146.3z M59.9,143c-0.9-2.1-1.6-4.4-2-6.2   c-0.2-0.8-0.3-1.6,0-2.1c0.3-0.5,1.2-0.7,1.8-0.4c0.7,0.3,1.4,1.2,1.6,2.2c0.3,1.1,0.2,2.3,0.2,3.6l0,0.2c-0.1,1.3-0.2,2.7,0.1,4.2   c-0.3,0.1-0.5,0.1-0.7,0.2C60.5,144.1,60.2,143.5,59.9,143z M63.7,152.3c-0.4-0.3-1.2-1.2-1.9-2.6l-0.1-0.1   c-0.1-0.2-0.2-0.5-0.4-0.7c-0.5-0.9-0.4-1.3-0.4-1.3c0,0,0.1-0.1,0.3-0.2c0.3-0.1,0.6-0.2,1-0.3c0.6-0.1,0.8-0.1,0.9-0.1   c0.5,0.4,0.7,1.3,0.8,2.5C64,150,64,151.5,63.7,152.3z M64.2,144.4c0-0.1,0-0.2,0-0.3c-0.1-2.4,0.4-4.9,1.4-7.9   c0.2-0.6,0.5-1.3,1-1.5c0.1,0,0.1,0,0.2,0c0.3,0,0.7,0.3,1,0.5c0.6,0.6,1,1.4,0.9,2c0,0.5-0.3,1.2-0.5,1.8l-0.1,0.3   c-0.7,1.9-2.2,3.6-3.7,5.3C64.3,144.5,64.2,144.5,64.2,144.4z M36.8,101.8c-0.1,0-0.1,0.1-0.2,0.1c-2-2.1-3.1-4.9-2.8-7.6   c0.1-0.6,0.2-0.8,0.3-0.8c0,0,0.1,0,0.1,0c0.1,0,0.3,0,0.5,0.2c0.3,0.2,0.6,0.5,0.9,1c0.9,1.5,1.1,3.2,1.2,4.9   C36.8,100.3,36.8,101,36.8,101.8z M48.7,96.7c0.8-0.6,1.4-0.9,1.9-0.8c0.5,0.1,0.8,0.5,0.9,0.9c0.1,0.4-0.1,1-0.4,1.5   c-0.4,0.6-1.1,1.1-1.8,1.6c-1.7,1.2-3.7,2.6-6,3.4c-0.1-0.1-0.1-0.2-0.2-0.2c0.1-0.1,0.1-0.1,0.2-0.2   C44.3,100.7,46.1,98.8,48.7,96.7z M40.7,93.2c0.3-1,0.6-1.6,1-1.8c0.6-0.4,1.8,0,2.4,0.6c0.6,0.7,0.8,1.7,0.5,2.7   c-0.3,1.1-0.9,2.1-1.7,3.2L42.8,98c-0.8,1.1-1.6,2.3-2.1,3.7c0,0,0,0,0,0c-0.4-0.1-0.8-0.2-1.2-0.3c0-0.6,0-1.3,0-1.9   C39.7,97.3,40.2,94.9,40.7,93.2z M34.5,124c-0.1-0.6-0.2-1.3,0-1.8c0.1-0.3,0.4-0.5,0.5-0.5c0,0,0,0,0,0c0.1,0,0.4,0.2,0.9,1.2   c0.7,1.4,1.2,2.8,1.7,4.3c0.3,2.1,0.8,4.3,1.3,6.4C36.6,130.9,35,127.6,34.5,124z M38.7,109.8c-0.3-0.1-0.7-1.3-0.7-3.5v-0.2   c0-0.2,0-0.5,0-0.8c0,0,0,0,0,0c0-1,0.2-1.2,0.2-1.3c0,0,0.1-0.1,0.4-0.1c0.1,0,0.1,0,0.2,0c0.3,0,0.8,0.1,1.3,0.3   c0.8,0.3,1,0.4,1,0.5c0.2,0.6,0.1,1.4-0.5,2.5C40.3,107.8,39.4,109.3,38.7,109.8z M40.8,129.4c0.1-0.2,0.2-0.4,0.2-0.7   c-0.2-2.6,0-5.2,0.3-7.3c0.4-2.4,1.5-4.3,3-5.4c0.4-0.3,0.8-0.5,1.1-0.5c0.3,0,0.6,0.5,0.6,1c0.1,0.7-0.2,1.5-0.5,2.3   c-0.4,1.1-0.9,2.2-1.4,3.4c-1.1,2.6-2.3,5.2-3,7.9C40.9,129.8,40.8,129.6,40.8,129.4z M17.6,115c0.3-1.2,0.6-1.8,1.2-2.2   c0.6-0.4,1.3-0.4,1.7-0.2c0.5,0.3,0.6,0.9,0.6,1.3c0.1,0.8-0.2,1.7-0.4,2.5c-0.6,2.2-1.4,4.8-2.9,7.3c-0.2,0-0.3-0.1-0.5-0.1   c0-0.1,0-0.1,0-0.2C16.7,121.1,16.8,118.4,17.6,115z M11.2,127.8c-3.4,0.2-6.5-1-8.2-3.2c-0.2-0.2-0.4-0.6-0.3-0.8   c0.1-0.2,0.5-0.5,0.9-0.6c0.4-0.1,0.9-0.1,1.6,0c1.8,0.4,3.3,1.4,4.6,2.6c0.5,0.5,1,1.1,1.5,1.5C11.3,127.5,11.2,127.6,11.2,127.8z    M13.1,125.3c-0.4-0.5-0.9-0.9-1.4-1.4c-1.5-1.7-2.7-3.8-3.5-5.4c-0.5-0.9-0.6-1.5-0.4-2c0.3-0.9,1.7-1.6,2.9-1.6   c1.4,0,2.1,1,2.3,1.5c0.5,0.9,0.7,2.1,0.8,3.5l0,0.2c0.1,1.4,0.3,2.9,0.9,4.3c0,0,0,0,0,0c0,0-0.1,0-0.1,0   C14,124.7,13.5,125,13.1,125.3z M18.7,131.6c0,0.1-0.1,0.2-0.2,0.3c-0.6,0.2-2-0.6-3.3-1.8l-0.1-0.1c-0.2-0.2-0.4-0.4-0.6-0.6   c-0.6-0.7-0.7-0.9-0.7-0.9c0-0.1,0.1-0.3,0.6-0.7c0.3-0.3,0.8-0.5,1.4-0.8c1-0.5,1.3-0.5,1.4-0.5c0.2,0.1,0.9,0.3,1.3,2.1   C18.6,129,19,130.6,18.7,131.6z M34.7,141.8c0.1-0.3,0.3-0.6,0.5-0.6c0.1,0,0.5,0.2,0.6,0.5c0.3,0.4,0.4,1,0.5,1.7l0.3,1.3   c0.3,1.5,0.6,3,1,4.5c-0.9-0.7-1.9-1.5-2.8-2.2c-0.1-0.6-0.1-1.3-0.1-1.9c0-0.5,0-1-0.1-1.4C34.6,143,34.5,142.3,34.7,141.8z    M25.4,151.1c-0.9-0.1-1.8-0.3-2.5-0.7c-1-0.5-1.1-0.9-1.1-0.9c0-0.2,0.7-0.8,1.9-1c3.8-0.6,7-0.2,9.7,1.3c0.3,0.2,0.6,0.2,0.9,0.1   c1.3,1.1,2.7,2.1,4.1,3.2L25.4,151.1z M13.2,169.5c-0.8-0.1-1.6-0.3-2-0.7c-0.4-0.4-0.2-1.4,0.3-1.9c0.6-0.6,1.6-0.8,2.7-0.7   c1.1,0.1,2.2,0.6,3.4,1.2l0.2,0.1c1.2,0.6,2.5,1.2,3.9,1.5c0,0.3-0.1,0.5-0.1,0.8c-0.6,0.1-1.2,0.1-1.9,0.2   C17.4,170,15,169.8,13.2,169.5z M17.8,175.9c-0.8,0.3-1.9,0.7-2.6,0.4c-0.3-0.2-0.7-0.5-0.8-0.9c-0.1-0.2-0.1-0.3,0-0.5   c0.1-0.2,0.4-0.5,0.8-0.8c1.4-0.9,3.1-1.3,4.8-1.6c0.8,0,1.5-0.1,2.3-0.2c0,0,0,0,0.1,0.1C20.9,174.1,19.4,175.3,17.8,175.9z    M22.7,166.5c-0.1-0.1-0.2-0.1-0.3-0.1c-2.3-0.8-4.4-2.2-6.8-4.3c-0.5-0.4-1-1-1-1.4c0-0.4,0.5-0.7,0.9-0.9   c0.4-0.2,0.9-0.3,1.3-0.3c0.3,0,0.6,0.1,0.8,0.2c0.5,0.2,1,0.7,1.5,1.2l0.2,0.2c1.5,1.4,2.5,3.4,3.5,5.4   C22.7,166.5,22.7,166.5,22.7,166.5z M26.7,170.7l-0.2,0c-0.2,0-0.5,0.1-0.8,0.1c-1,0.1-1.3-0.1-1.4-0.1c0,0-0.1-0.1-0.1-0.4   c0-0.3,0-0.6,0.1-1.1c0.1-0.6,0.2-0.8,0.3-0.8c0.2-0.1,0.5-0.2,0.8-0.2c0.5,0,1.1,0.1,1.8,0.4c0.5,0.2,1.9,0.7,2.6,1.3   C29.4,170.2,28.2,170.5,26.7,170.7z M62.4,180.5c-3.1,0.3-6.4,0.6-8.9,0.8c-1.6,0.1-3.5,0.3-4.9-0.4c-1.1-0.5-2.2-1.7-1.9-2.8   c0.2-0.9,1.3-1.5,2.2-1.7c0.4-0.1,0.7-0.1,1.1-0.1c0.9,0,1.8,0.2,2.7,0.3c1.3,0.2,2.9,0.5,4.5,0.7c1.5,0.2,2.9,0.5,4.1,0.7   c1.5,0.6,3,1.3,4.4,2.1C64.7,180.3,63.6,180.4,62.4,180.5z M62.9,175.9c-0.5-0.5-1.1-1-1.7-1.6c-1.2-1-2.6-2.3-2.9-3.2   c-0.2-0.7-0.1-0.9-0.1-0.9c0,0,0.3-0.2,0.5-0.1c0.5,0.1,0.9,0.4,1.4,0.7c3.5,2.3,6.5,5.1,9.1,8.3C67.3,177.9,65.1,176.8,62.9,175.9   z M79.6,176.7c-0.2,2.1-0.5,4.2-0.5,6.3c-0.4-0.7-0.9-1.4-1.4-2.1c-0.7-2.4-1.1-5.1-1.4-6.9c-0.5-3-0.1-5.8,1.3-7.8   c0.4-0.7,0.8-0.9,1.1-0.9c0.4,0,0.8,0.8,1,1.7C80.4,170,80,173.3,79.6,176.7z M91,206.1c-3.7-1.4-6-3.3-6.8-5.6   c-0.2-0.6-0.2-1-0.1-1.4c0.1-0.3,0.3-0.5,0.4-0.5c0,0,0,0,0.1,0c0.3,0,0.9,0.4,1.1,0.6c2.2,1.5,4.7,3.7,6.9,5.6   c0.8,1,1.5,2,2.3,3.1C93.7,207.3,92.4,206.6,91,206.1z M94.9,203.4c-0.8-2.9-1-6-0.7-8.9c0.1-0.8,0.2-1.5,0.6-2   c0.2-0.3,0.6-0.4,0.8-0.3c0.2,0.1,0.3,0.6,0.4,1.4l1.4,13.2C96.6,205.7,95.7,204.5,94.9,203.4z M72.7,213.2c-1.4,0.6-3,1.2-4.5,1   c-0.7-0.1-1.5-0.5-1.6-1c-0.1-0.6,0.6-1.3,1.4-1.7c0.9-0.5,2.6-1.8,3.8-2.9c2.4,0.4,4.7,0.8,7,1.4   C76.7,211.2,74.5,212.5,72.7,213.2z M67.6,198.5c-0.3-1.2-0.2-1.6-0.1-1.7c0.1-0.1,0.4-0.2,0.7-0.2c0.1,0,0.3,0,0.4,0.1   c0.6,0.2,1.2,0.7,1.7,1.3c1.2,1.3,2.3,2.7,3.4,4.2c0.6,0.8,1.2,1.6,1.8,2.3c0.7,0.8,1.5,1.8,2.5,2.8c-1.9-0.4-3.9-0.8-5.9-1.1   C70.1,204,68.5,201.4,67.6,198.5z M52.5,204.5c0.2-0.8,0.4-1,0.4-1.1c0.2-0.1,0.4-0.1,0.7-0.1c0.5,0,1.1,0.2,1.9,0.6   c0.5,0.2,2,1,2.6,1.7c-0.2,0.3-1.5,0.8-3.4,0.9l-0.2,0c-0.2,0-0.5,0-0.8,0c-1,0-1.3-0.1-1.3-0.1c0,0-0.1-0.1-0.1-0.6   C52.3,205.4,52.4,205,52.5,204.5z M42.8,211.1c-0.6,0-0.8-0.2-0.9-0.3c-0.1-0.1,0-0.4,0.1-0.7c0.2-0.3,0.5-0.6,0.9-0.9   c1.5-0.9,3.2-1.3,4.9-1.4c0.7,0,1.5,0,2.2-0.1c0,0.1,0.1,0.1,0.1,0.2C48.2,210.1,45.4,211.3,42.8,211.1z M44.4,193.4   c0.4-0.1,1,0,1.5,0.4c0.6,0.4,1.2,1.1,1.7,1.7c1.3,1.6,2.7,3.6,3.6,5.9c-0.1,0.1-0.2,0.1-0.2,0.2c-0.1,0-0.1-0.1-0.2-0.1   c-2.2-1.1-4.2-2.7-6.4-5.2c-0.7-0.8-1-1.4-0.9-1.8C43.6,193.8,44.1,193.5,44.4,193.4z M39.5,203.3c-0.4-0.6-0.1-1.8,0.5-2.4   c0.6-0.6,1.6-0.8,2.7-0.6c1.1,0.2,2.1,0.8,3.2,1.5l0.2,0.1c1.2,0.7,2.4,1.5,3.8,1.9c0,0,0,0,0,0c-0.1,0.4-0.2,0.8-0.2,1.2   c-0.6,0-1.3,0-1.9,0.1c-2.3,0-4.7-0.5-6.4-0.9C40.3,204,39.7,203.7,39.5,203.3z" style="fill: #c49d44; fill-opacity: 1;"></path><path class="st0" d="M240.8,121.5l-0.5,3.5c-0.2,1.3-1.1,2.4-2.4,2.8l-3.7,1.2c-0.7,0.2-0.6,1.2,0.1,1.3l3.7,0.6   c1.3,0.2,2.4,1.1,2.7,2.4l1.1,3.7c0.2,0.7,1.2,0.6,1.3-0.1l0.7-3.8c0.2-1.2,1.1-2.2,2.3-2.6l3.5-1.2c0.7-0.2,0.6-1.2-0.1-1.3   l-3.4-0.5c-1.3-0.2-2.4-1.1-2.8-2.4l-1.2-3.8C241.9,120.7,240.9,120.8,240.8,121.5z" style="fill: #c49d44; fill-opacity: 1;"></path><path class="st0" d="M2,74.7l3.7,0.6c1.3,0.2,2.4,1.1,2.7,2.4l1.1,3.7c0.2,0.7,1.2,0.6,1.3-0.1l0.7-3.8c0.2-1.2,1.1-2.2,2.3-2.6   l3.5-1.2c0.7-0.2,0.6-1.2-0.1-1.3L13.9,72c-1.3-0.2-2.4-1.1-2.8-2.4l-1.2-3.8c-0.2-0.7-1.2-0.6-1.3,0.1L8,69.4   c-0.2,1.3-1.1,2.4-2.4,2.8l-3.7,1.2C1.2,73.6,1.3,74.6,2,74.7z" style="fill: #c49d44; fill-opacity: 1;"></path><path class="st0" d="M97.3,16.6l3.7,0.6c1.3,0.2,2.4,1.1,2.7,2.4l1.1,3.7c0.2,0.7,1.2,0.6,1.3-0.1l0.7-3.8c0.2-1.2,1.1-2.2,2.3-2.6   l3.5-1.2c0.7-0.2,0.6-1.2-0.1-1.3l-3.4-0.5c-1.3-0.2-2.4-1.1-2.8-2.4l-1.2-3.8c-0.2-0.7-1.2-0.6-1.3,0.1l-0.5,3.5   c-0.2,1.3-1.1,2.4-2.4,2.8l-3.7,1.2C96.5,15.5,96.6,16.4,97.3,16.6z" style="fill: #c49d44; fill-opacity: 1;"></path><path class="st0" d="M126.2,277.5c-1.3-0.2-2.4-1.1-2.8-2.4l-1.2-3.8c-0.2-0.7-1.2-0.6-1.3,0.1l-0.5,3.5c-0.2,1.3-1.1,2.4-2.4,2.8   l-3.7,1.2c-0.7,0.2-0.6,1.2,0.1,1.3l3.7,0.6c1.3,0.2,2.4,1.1,2.7,2.4l1.1,3.7c0.2,0.7,1.2,0.6,1.3-0.1l0.7-3.8   c0.2-1.2,1.1-2.2,2.3-2.6l3.5-1.2c0.7-0.2,0.6-1.2-0.1-1.3L126.2,277.5z" style="fill: #c49d44; fill-opacity: 1;"></path><path class="st0" d="M119,5.6l2.2,0.4c0.8,0.1,1.4,0.7,1.7,1.4l0.7,2.2c0.1,0.4,0.7,0.4,0.8,0l0.4-2.3c0.1-0.7,0.7-1.3,1.4-1.6   l2.1-0.7c0.4-0.1,0.3-0.7-0.1-0.8L126.1,4c-0.8-0.1-1.4-0.7-1.7-1.4l-0.7-2.3c-0.1-0.4-0.7-0.4-0.8,0.1l-0.3,2.1   c-0.1,0.8-0.7,1.4-1.4,1.7l-2.2,0.7C118.5,5,118.6,5.6,119,5.6z" style="fill: #c49d44; fill-opacity: 1;"></path><path class="st0" d="M189.3,163.9l5.2-1.7c1-0.3,0.8-1.8-0.2-1.9l-5-0.7c-1.9-0.3-3.5-1.6-4.1-3.4l-1.8-5.5c-0.3-1-1.7-0.9-1.9,0.2   l-0.8,5.1c-0.3,1.9-1.6,3.5-3.5,4l-5.4,1.7c-1,0.3-0.9,1.7,0.1,1.9l5.4,0.9c1.9,0.3,3.4,1.7,4,3.5l1.7,5.4c0.3,1,1.7,0.9,1.9-0.1   l1.1-5.5C186.3,165.9,187.6,164.4,189.3,163.9z" style="fill: #c49d44; fill-opacity: 1;"></path><path class="st0" d="M186.2,264.3l4.2,0.7c1.5,0.2,2.7,1.3,3.1,2.7l1.3,4.2c0.2,0.8,1.3,0.7,1.5-0.1l0.8-4.3c0.3-1.4,1.3-2.5,2.6-3   l4-1.4c0.8-0.3,0.7-1.4-0.1-1.5l-3.9-0.6c-1.5-0.2-2.7-1.2-3.2-2.7l-1.4-4.3c-0.2-0.8-1.4-0.7-1.5,0.1l-0.6,4   c-0.2,1.5-1.3,2.7-2.7,3.1l-4.2,1.4C185.3,263.1,185.4,264.2,186.2,264.3z" style="fill: #c49d44; fill-opacity: 1;"></path><path class="st0" d="M251.8,194.9c0-0.7-0.5-1.3-1.1-1.4l-16.1-4.1c0,0,0,0,0,0c-3.1-0.8-5.4-3.1-6.1-6.2l-3.7-35   c-0.1-0.8-0.7-1.3-1.5-1.3c-0.8,0-1.4,0.5-1.5,1.3l-4.9,36c-0.8,3-3.2,5.3-6.4,6l-15.8,3.8c-0.7,0.2-1.1,0.7-1.2,1.4   c0,0.7,0.4,1.3,1.1,1.5l16.3,4.7c2.8,0.7,5.1,3,5.9,5.8c3.9,30.6,4.2,30.7,5.4,31c0.1,0,0.3,0.1,0.4,0.1c0.3,0,0.6-0.1,0.9-0.3   c0.7-0.5,1.6-1.1,5.2-31c0.8-3,3.1-5.4,6.3-6.1l15.7-4.7C251.4,196.2,251.8,195.6,251.8,194.9z M234.3,198.1   c-4.2,1-7.4,4.2-8.4,8.4c0,0.1,0,0.1,0,0.2c-1,8-2.1,16.6-3,22.4c-0.9-6.4-2.2-15.7-3-22.3c0-0.1,0-0.1,0-0.2c-1.1-3.9-4.1-7-8-8   l-10.8-3.1l10.2-2.4c4.3-0.9,7.6-4.1,8.6-8.3c0-0.1,0-0.1,0-0.2l3.3-23.9l2.4,22.8c0,0.1,0,0.1,0,0.2c0.9,4.2,4.1,7.5,8.3,8.5   l10.8,2.8L234.3,198.1z" style="fill: #c49d44; fill-opacity: 1;"></path><circle class="st0" cx="237.7" cy="90" r="4.3" style="fill: #c49d44; fill-opacity: 1;"></circle><path class="st0" d="M22.9,206.6c-2.4,0-4.3,1.9-4.3,4.3c0,2.4,1.9,4.3,4.3,4.3c2.4,0,4.3-1.9,4.3-4.3   C27.2,208.5,25.3,206.6,22.9,206.6z" style="fill: #c49d44; fill-opacity: 1;"></path><path class="st0" d="M229.6,291.9c0,2.4,1.9,4.3,4.3,4.3c2.4,0,4.3-1.9,4.3-4.3c0-2.4-1.9-4.3-4.3-4.3   C231.6,287.6,229.6,289.5,229.6,291.9z" style="fill: #c49d44; fill-opacity: 1;"></path></svg> <svg y="267.63" viewBox="-1.4500000476837158 9.300000190734863 435.3600158691406 59.369998931884766" x="139.64" height="59.369998931884766" width="435.3600158691406" style="overflow: visible;"><g fill="#c49d44" fill-opacity="1" style=""><path d="M43.39 41.99L43.39 41.99Q43.36 42.04 43.10 42.40Q42.83 42.76 42.34 43.28Q41.84 43.80 41.11 44.39Q40.37 44.98 39.37 45.47Q38.37 45.97 37.12 46.30Q35.87 46.64 34.35 46.64L34.35 46.64Q31.99 46.64 29.91 46.05Q27.84 45.46 25.92 44.54Q24.01 43.63 22.15 42.52Q20.30 41.41 18.37 40.35L18.37 40.35Q17.19 42.33 15.66 43.57Q14.12 44.81 12.47 45.51Q10.82 46.21 9.20 46.46Q7.57 46.71 6.19 46.71L6.19 46.71Q4.87 46.71 3.51 46.44Q2.15 46.16 1.05 45.52Q-0.05 44.88-0.75 43.84Q-1.45 42.81-1.45 41.27L-1.45 41.27Q-1.45 39.82-0.78 38.65Q-0.12 37.48 1.05 36.66Q2.22 35.84 3.81 35.40Q5.40 34.95 7.23 34.95L7.23 34.95Q8.60 34.95 9.97 35.19Q11.33 35.43 12.63 35.84Q13.93 36.25 15.16 36.77Q16.39 37.29 17.48 37.82L17.48 37.82Q17.62 37.38 17.73 36.95Q17.84 36.52 17.92 36.00Q18.01 35.48 18.04 34.84Q18.08 34.20 18.08 33.36L18.08 33.36Q18.08 32.56 18.04 31.84Q18.01 31.12 17.97 30.26Q17.93 29.41 17.90 28.33Q17.86 27.26 17.86 25.77L17.86 25.77Q17.86 22.32 18.54 19.49Q19.21 16.66 20.54 14.63Q21.86 12.61 23.84 11.49Q25.81 10.36 28.44 10.36L28.44 10.36Q30.03 10.36 31.47 10.87Q32.90 11.38 34.00 12.32Q35.09 13.26 35.73 14.56Q36.37 15.86 36.37 17.45L36.37 17.45Q36.37 18.32 36.13 19.26Q35.89 20.20 35.47 20.98Q35.05 21.77 34.50 22.27Q33.96 22.78 33.36 22.78L33.36 22.78Q33.02 22.78 32.76 22.59Q32.49 22.39 32.49 21.98L32.49 21.98Q32.49 21.69 32.62 21.49Q32.76 21.28 32.95 21.11L32.95 21.11Q33.65 20.49 34.09 19.57Q34.54 18.66 34.54 17.45L34.54 17.45Q34.54 16.25 34.05 15.27Q33.55 14.29 32.72 13.61Q31.89 12.92 30.79 12.55Q29.70 12.17 28.49 12.17L28.49 12.17Q26.22 12.17 24.56 13.16Q22.90 14.15 21.81 15.94Q20.73 17.74 20.21 20.28Q19.69 22.83 19.69 25.94L19.69 25.94Q19.69 27.43 19.73 28.56Q19.76 29.70 19.80 30.64Q19.84 31.58 19.87 32.41Q19.91 33.24 19.91 34.11L19.91 34.11Q19.91 34.61 19.86 35.20Q19.81 35.79 19.72 36.41Q19.62 37.02 19.46 37.61Q19.31 38.20 19.11 38.69L19.11 38.69Q20.95 39.65 22.73 40.74Q24.51 41.82 26.36 42.72Q28.20 43.63 30.17 44.22Q32.13 44.81 34.32 44.81L34.32 44.81Q36.25 44.81 37.66 44.23Q39.07 43.65 40.00 42.94Q40.93 42.23 41.39 41.64Q41.84 41.05 41.84 41.02L41.84 41.02Q42.11 40.59 42.62 40.59L42.62 40.59Q43.02 40.59 43.28 40.88Q43.53 41.17 43.53 41.51L43.53 41.51Q43.53 41.77 43.39 41.99ZM16.78 39.46L16.78 39.46Q15.74 38.95 14.59 38.46Q13.45 37.96 12.24 37.58Q11.04 37.19 9.77 36.96Q8.51 36.73 7.26 36.73L7.26 36.73Q5.83 36.73 4.58 37.04Q3.33 37.34 2.39 37.91Q1.45 38.49 0.90 39.31Q0.36 40.13 0.36 41.17L0.36 41.17Q0.36 42.13 0.84 42.84Q1.33 43.56 2.13 44.03Q2.94 44.50 4.00 44.72Q5.06 44.95 6.22 44.95L6.22 44.95Q7.62 44.95 9.11 44.72Q10.61 44.50 12.00 43.88Q13.40 43.27 14.63 42.19Q15.86 41.12 16.78 39.46ZM53.41 43.22L53.41 43.22Q52.57 44.59 51.45 45.39Q50.33 46.18 49.20 46.18L49.20 46.18Q48.28 46.18 47.56 45.84Q46.83 45.51 46.30 44.89Q45.77 44.28 45.50 43.41Q45.22 42.54 45.22 41.46L45.22 41.46Q45.22 39.77 45.54 38.47Q45.87 37.17 46.25 36.29Q46.64 35.41 46.98 34.95Q47.32 34.49 47.32 34.49L47.32 34.49Q47.44 34.35 47.62 34.28Q47.80 34.20 47.99 34.20L47.99 34.20Q48.38 34.20 48.63 34.48Q48.88 34.76 48.88 35.12L48.88 35.12Q48.88 35.26 48.82 35.41Q48.76 35.55 48.69 35.70L48.69 35.70Q48.57 35.91 48.30 36.36Q48.04 36.81 47.75 37.53Q47.46 38.25 47.24 39.23Q47.03 40.20 47.03 41.46L47.03 41.46Q47.03 42.88 47.59 43.62Q48.16 44.35 49.20 44.35L49.20 44.35Q49.63 44.35 50.20 44.07Q50.76 43.80 51.30 43.22Q51.85 42.64 52.26 41.75Q52.67 40.86 52.79 39.65L52.79 39.65L53.15 35.50Q53.20 35.14 53.46 34.90Q53.73 34.66 54.09 34.66L54.09 34.66Q54.50 34.66 54.74 34.96Q54.98 35.26 54.98 35.65L54.98 35.65L54.67 39.65Q54.62 40.16 54.70 40.98Q54.79 41.80 55.05 42.59Q55.32 43.39 55.85 43.95Q56.38 44.52 57.25 44.52L57.25 44.52Q57.87 44.52 58.48 44.19Q59.08 43.87 59.63 43.34Q60.19 42.81 60.66 42.15Q61.13 41.48 61.52 40.81Q61.92 40.13 62.21 39.52Q62.50 38.90 62.69 38.47L62.69 38.47Q62.81 38.20 63.03 38.06Q63.25 37.91 63.51 37.91L63.51 37.91Q63.95 37.91 64.19 38.20Q64.43 38.49 64.43 38.83L64.43 38.83Q64.43 39.02 64.36 39.19L64.36 39.19Q64.26 39.39 63.98 40.00Q63.71 40.61 63.26 41.40Q62.81 42.18 62.19 43.05Q61.56 43.92 60.79 44.65Q60.02 45.39 59.11 45.86Q58.21 46.33 57.17 46.33L57.17 46.33Q55.75 46.33 54.81 45.52Q53.87 44.71 53.41 43.22ZM68.04 43.75L68.04 43.75Q68.43 42.95 68.94 42.00Q69.44 41.05 70.02 40.07Q70.60 39.10 71.24 38.13Q71.88 37.17 72.58 36.30L72.58 36.30Q73.27 35.46 73.99 35.08Q74.70 34.71 75.32 34.71L75.32 34.71Q76.58 34.71 77.18 35.63Q77.78 36.54 77.78 37.89L77.78 37.89Q77.78 38.20 77.75 38.65Q77.71 39.10 77.67 39.60Q77.64 40.11 77.60 40.63Q77.57 41.14 77.57 41.60L77.57 41.60Q77.57 42.18 77.63 42.71Q77.69 43.24 77.85 43.64Q78.02 44.04 78.34 44.27Q78.65 44.50 79.16 44.50L79.16 44.50Q80.07 44.50 80.94 43.78Q81.81 43.07 82.54 42.10Q83.28 41.12 83.82 40.11Q84.36 39.10 84.63 38.47L84.63 38.47Q84.75 38.20 84.98 38.06Q85.21 37.91 85.47 37.91L85.47 37.91Q85.88 37.91 86.13 38.22Q86.39 38.52 86.39 38.85L86.39 38.85Q86.39 39.02 86.31 39.19L86.31 39.19Q86.22 39.39 85.93 39.99Q85.64 40.59 85.17 41.37Q84.70 42.16 84.07 43.04Q83.45 43.92 82.69 44.64Q81.93 45.36 81.05 45.84Q80.17 46.33 79.20 46.33L79.20 46.33Q78.12 46.33 77.44 45.91Q76.77 45.48 76.38 44.80Q76.00 44.11 75.87 43.28Q75.73 42.45 75.73 41.60L75.73 41.60Q75.73 41.24 75.77 40.78Q75.81 40.33 75.87 39.82Q75.93 39.31 75.96 38.81Q76.00 38.30 76.00 37.84L76.00 37.84Q76.00 37.07 75.76 36.79Q75.52 36.52 75.32 36.52L75.32 36.52Q74.94 36.52 74.44 36.96Q73.95 37.41 73.41 38.13Q72.87 38.85 72.30 39.76Q71.73 40.66 71.24 41.55Q70.74 42.45 70.32 43.25Q69.90 44.06 69.66 44.59L69.66 44.59Q69.18 45.60 68.70 45.95Q68.21 46.30 67.71 46.30L67.71 46.30Q67.01 46.30 66.59 45.88Q66.16 45.46 66.16 44.69L66.16 44.69Q66.16 44.52 66.21 44.03Q66.26 43.53 66.33 42.84Q66.41 42.16 66.48 41.36Q66.55 40.57 66.62 39.78Q66.69 39.00 66.74 38.32Q66.79 37.65 66.79 37.19L66.79 37.19Q66.79 36.59 66.74 36.03Q66.69 35.48 66.55 35.36L66.55 35.36Q66.33 35.43 65.78 36.26Q65.22 37.10 64.36 39.19L64.36 39.19Q64.24 39.46 63.99 39.60Q63.75 39.75 63.49 39.75L63.49 39.75Q63.08 39.75 62.84 39.47Q62.60 39.19 62.60 38.83L62.60 38.83Q62.60 38.66 62.67 38.47L62.67 38.47Q63.75 35.89 64.71 34.67Q65.66 33.46 66.60 33.46L66.60 33.46Q67.15 33.46 67.54 33.73Q67.92 34.01 68.15 34.47Q68.38 34.93 68.49 35.48Q68.60 36.03 68.60 36.61L68.60 36.61Q68.60 37.05 68.54 37.96Q68.48 38.88 68.38 39.93Q68.29 40.98 68.20 42.01Q68.12 43.05 68.04 43.75ZM103.28 39.19L103.28 39.19Q103.19 39.39 102.89 40.00Q102.58 40.61 102.11 41.41Q101.64 42.21 101.02 43.07Q100.39 43.94 99.62 44.66Q98.85 45.39 97.96 45.86Q97.07 46.33 96.08 46.33L96.08 46.33Q94.68 46.33 93.73 45.44Q92.77 44.54 92.34 43.19L92.34 43.19Q91.52 44.57 90.39 45.37Q89.26 46.18 88.12 46.18L88.12 46.18Q87.23 46.18 86.51 45.86Q85.78 45.53 85.28 44.94Q84.77 44.35 84.50 43.56Q84.22 42.76 84.22 41.82L84.22 41.82Q84.22 39.94 84.86 38.51Q85.50 37.07 86.48 36.11Q87.47 35.14 88.66 34.66Q89.86 34.18 90.97 34.18L90.97 34.18Q91.71 34.18 92.34 34.38Q92.97 34.59 93.41 34.83Q93.86 35.07 94.10 35.28Q94.34 35.48 94.37 35.50L94.37 35.50Q94.63 35.82 94.63 36.16L94.63 36.16Q94.63 36.52 94.37 36.79Q94.10 37.07 93.74 37.07L93.74 37.07Q93.35 37.07 93.09 36.81L93.09 36.81Q93.04 36.76 92.87 36.63Q92.70 36.49 92.41 36.35Q92.12 36.20 91.73 36.10Q91.33 35.99 90.82 35.99L90.82 35.99Q90.08 35.99 89.23 36.32Q88.39 36.66 87.69 37.37Q86.99 38.08 86.52 39.16Q86.05 40.23 86.05 41.70L86.05 41.70Q86.05 42.16 86.15 42.63Q86.24 43.10 86.48 43.48Q86.72 43.87 87.13 44.11Q87.54 44.35 88.15 44.35L88.15 44.35Q88.58 44.35 89.15 44.06Q89.71 43.77 90.23 43.17Q90.75 42.57 91.17 41.65Q91.59 40.74 91.76 39.48L91.76 39.48Q91.81 39.14 92.08 38.92Q92.34 38.69 92.70 38.69L92.70 38.69Q93.04 38.69 93.29 38.95Q93.55 39.22 93.57 39.55L93.57 39.55Q93.59 40.01 93.67 40.84Q93.74 41.68 93.99 42.49Q94.24 43.31 94.75 43.92Q95.26 44.52 96.15 44.52L96.15 44.52Q96.73 44.52 97.29 44.21Q97.86 43.89 98.40 43.37Q98.95 42.86 99.44 42.19Q99.93 41.53 100.34 40.86Q100.75 40.18 101.07 39.55Q101.38 38.93 101.60 38.47L101.60 38.47Q101.72 38.20 101.95 38.06Q102.18 37.91 102.44 37.91L102.44 37.91Q102.85 37.91 103.10 38.22Q103.36 38.52 103.36 38.85L103.36 38.85Q103.36 39.02 103.28 39.19ZM104.85 13.06L104.30 17.67Q104.25 18.01 103.98 18.23Q103.72 18.46 103.38 18.46L103.38 18.46Q103.04 18.46 102.77 18.20Q102.49 17.93 102.49 17.52L102.49 17.52Q102.49 17.43 102.50 17.32Q102.51 17.21 102.54 17.04L102.54 17.04L103.14 12.03Q103.19 11.67 103.45 11.45Q103.72 11.23 104.06 11.23L104.06 11.23Q104.46 11.23 104.71 11.51Q104.95 11.79 104.95 12.15L104.95 12.15Q104.95 12.24 104.91 12.57Q104.87 12.90 104.85 13.06L104.85 13.06ZM110.32 37.00L110.32 37.00Q110.18 37.38 109.97 37.87Q109.77 38.35 109.50 38.88L109.50 38.88Q109.29 39.29 109.06 39.52Q108.83 39.75 108.47 39.75L108.47 39.75Q108.06 39.75 107.82 39.49Q107.57 39.24 107.57 38.90L107.57 38.90Q107.57 38.78 107.60 38.70Q107.62 38.61 107.72 38.42L107.72 38.42Q108.35 37.22 108.65 36.31Q108.95 35.41 109.14 34.42L109.14 34.42Q108.97 33.87 108.90 33.48Q108.83 33.09 108.83 32.68L108.83 32.68Q108.83 31.89 109.17 31.39Q109.50 30.90 110.11 30.90L110.11 30.90Q110.66 30.90 110.98 31.38Q111.31 31.86 111.31 32.56L111.31 32.56Q111.31 32.95 111.24 33.34Q111.17 33.72 111.05 34.30L111.05 34.30Q111.60 35.67 112.15 36.73Q112.71 37.79 113.14 38.67Q113.58 39.55 113.85 40.33Q114.13 41.10 114.13 41.87L114.13 41.87Q114.13 42.88 113.72 43.80Q113.31 44.71 112.37 45.34L112.37 45.34Q112.49 45.36 112.61 45.36Q112.73 45.36 112.85 45.36L112.85 45.36Q114.23 45.36 115.38 44.74Q116.54 44.11 117.47 43.11Q118.40 42.11 119.12 40.89Q119.84 39.67 120.37 38.47L120.37 38.47Q120.61 37.91 121.05 37.91L121.05 37.91Q121.46 37.91 121.69 38.20Q121.92 38.49 121.92 38.83L121.92 38.83Q121.92 39.02 121.84 39.19L121.84 39.19Q121.58 39.84 121.16 40.67Q120.73 41.51 120.14 42.39Q119.55 43.27 118.78 44.11Q118.01 44.95 117.06 45.62Q116.11 46.28 114.97 46.68Q113.84 47.07 112.49 47.07L112.49 47.07Q110.88 47.07 109.49 46.51Q108.10 45.94 107.24 44.64L107.24 44.64Q107.09 44.42 107.09 44.18L107.09 44.18Q107.09 43.82 107.37 43.54Q107.65 43.27 108.01 43.27L108.01 43.27Q108.39 43.27 108.66 43.53L108.66 43.53Q108.68 43.58 108.83 43.69Q108.97 43.80 109.18 43.93Q109.38 44.06 109.66 44.16Q109.94 44.25 110.23 44.25L110.23 44.25Q110.80 44.25 111.20 44.01Q111.60 43.77 111.84 43.42Q112.08 43.07 112.19 42.68Q112.30 42.28 112.30 41.99L112.30 41.99Q112.30 41.39 112.11 40.78Q111.91 40.18 111.61 39.58Q111.31 38.98 110.96 38.34Q110.61 37.70 110.32 37.00ZM175.38 29.17L175.38 29.17Q177.45 29.74 178.91 30.49Q180.37 31.24 181.37 32.05Q182.37 32.85 182.95 33.70Q183.52 34.54 183.84 35.31Q184.15 36.08 184.24 36.75Q184.32 37.41 184.32 37.87L184.32 37.87Q184.32 39.55 183.68 40.88Q183.04 42.21 181.96 43.22Q180.87 44.23 179.44 44.93Q178.00 45.63 176.44 46.07Q174.87 46.52 173.23 46.72Q171.59 46.93 170.12 46.93L170.12 46.93Q167.74 46.93 165.19 46.45Q162.65 45.97 160.05 44.88L160.05 44.88Q159.47 44.64 159.47 44.04L159.47 44.04Q159.47 43.63 159.76 43.37Q160.05 43.12 160.39 43.12L160.39 43.12Q160.55 43.12 160.75 43.19L160.75 43.19Q162.99 44.13 165.35 44.62Q167.71 45.10 170.10 45.10L170.10 45.10Q173.35 45.10 175.69 44.47Q178.03 43.84 179.54 42.82Q181.04 41.80 181.76 40.51Q182.49 39.22 182.49 37.89L182.49 37.89Q182.49 36.42 181.68 35.17Q180.87 33.91 179.39 32.93Q177.91 31.94 175.84 31.24Q173.76 30.54 171.23 30.20L171.23 30.20Q169.57 30.49 168.00 30.61Q166.44 30.73 165.11 30.73L165.11 30.73L164.56 30.73Q164.39 30.73 164.24 30.71L164.24 30.71Q162.51 34.88 160.11 37.91Q157.71 40.95 155.00 42.94Q152.29 44.93 149.43 45.88Q146.57 46.83 143.95 46.83L143.95 46.83Q141.22 46.83 138.94 46.07Q136.67 45.31 135.03 43.92Q133.39 42.52 132.47 40.53Q131.56 38.54 131.56 36.08L131.56 36.08Q131.56 33.53 132.56 30.79Q133.56 28.06 135.53 25.24L135.53 25.24Q137.41 22.59 139.70 20.48Q141.99 18.37 144.51 16.78Q147.03 15.19 149.71 14.05Q152.38 12.92 155.02 12.20Q157.66 11.47 160.18 11.15Q162.70 10.82 164.92 10.82L164.92 10.82Q166.72 10.82 168.36 10.94Q170.00 11.06 171.50 11.30L171.50 11.30Q172.36 10.34 172.89 9.92Q173.43 9.50 173.50 9.45L173.50 9.45Q173.79 9.30 174.00 9.30L174.00 9.30Q174.34 9.30 174.61 9.50Q174.87 9.69 174.87 10.05L174.87 10.05Q174.87 10.53 174.53 10.86Q174.20 11.18 173.62 11.74L173.62 11.74Q178.03 12.82 180.37 15.00Q182.71 17.19 182.71 20.39L182.71 20.39Q182.71 22.15 182.13 23.55Q181.55 24.95 180.55 26.01Q179.55 27.07 178.21 27.85Q176.87 28.64 175.38 29.17ZM171.26 28.37L171.26 28.37Q172.32 28.18 173.44 27.86Q174.56 27.55 175.63 27.10Q176.70 26.66 177.67 26.04Q178.63 25.43 179.34 24.60Q180.05 23.77 180.48 22.73Q180.90 21.69 180.90 20.37L180.90 20.37Q180.90 17.67 178.66 15.91Q176.41 14.15 172.22 13.31L172.22 13.31Q171.01 14.80 169.95 16.61Q168.89 18.42 168.00 20.36Q167.11 22.30 166.40 24.28Q165.69 26.27 165.23 28.13L165.23 28.13Q165.71 28.10 166.12 28.10Q166.53 28.10 166.82 28.10L166.82 28.10Q167.76 28.10 168.87 28.17Q169.98 28.23 171.26 28.37ZM170.17 12.97L170.17 12.97Q168.94 12.80 167.64 12.73Q166.34 12.65 164.92 12.65L164.92 12.65Q162.80 12.65 160.41 12.97Q158.02 13.28 155.52 13.96Q153.01 14.63 150.47 15.70Q147.92 16.78 145.53 18.28Q143.13 19.79 140.96 21.79Q138.79 23.79 137.00 26.30L137.00 26.30Q135.20 28.85 134.28 31.33Q133.37 33.82 133.37 36.06L133.37 36.06Q133.37 38.16 134.12 39.82Q134.88 41.48 136.28 42.63Q137.68 43.77 139.63 44.39Q141.58 45.00 143.95 45.00L143.95 45.00Q146.31 45.00 148.86 44.15Q151.42 43.29 153.85 41.52Q156.29 39.75 158.48 37.04Q160.67 34.32 162.31 30.59L162.31 30.59Q161.88 30.59 161.42 30.33Q160.96 30.08 160.96 29.53L160.96 29.53Q160.96 28.95 161.52 28.70Q162.07 28.44 163.25 28.27L163.25 28.27Q163.90 26.30 164.58 24.32Q165.25 22.34 166.07 20.42Q166.89 18.49 167.88 16.62Q168.87 14.75 170.17 12.97ZM190.78 43.27L190.78 43.27Q191.29 43.96 192.08 44.39Q192.88 44.81 194.03 44.81L194.03 44.81Q195.21 44.81 196.18 44.24Q197.14 43.68 197.94 42.76Q198.73 41.84 199.36 40.71Q199.99 39.58 200.49 38.45L200.49 38.45Q200.61 38.18 200.83 38.05Q201.05 37.91 201.31 37.91L201.31 37.91Q201.72 37.91 201.98 38.20Q202.23 38.49 202.23 38.83L202.23 38.83Q202.23 38.95 202.20 39.04Q202.18 39.12 202.13 39.22L202.13 39.22Q200.47 42.88 198.50 44.74Q196.54 46.59 194.06 46.64L194.06 46.64Q192.47 46.64 191.31 46.03Q190.15 45.41 189.41 44.43Q188.66 43.46 188.30 42.23Q187.94 41.00 187.94 39.77L187.94 39.77Q187.94 38.54 188.24 37.51Q188.54 36.47 189.10 35.70Q189.67 34.93 190.45 34.49Q191.24 34.06 192.18 34.06L192.18 34.06Q192.73 34.06 193.27 34.29Q193.82 34.52 194.25 34.94Q194.68 35.36 194.95 35.96Q195.21 36.57 195.21 37.34L195.21 37.34Q195.21 38.32 194.88 39.19Q194.54 40.06 193.95 40.81Q193.36 41.55 192.54 42.18Q191.72 42.81 190.78 43.27ZM190.06 41.70L190.06 41.70Q190.80 41.39 191.42 40.90Q192.03 40.42 192.47 39.84Q192.90 39.26 193.14 38.63Q193.38 37.99 193.38 37.34L193.38 37.34Q193.38 36.61 193.02 36.24Q192.66 35.87 192.18 35.87L192.18 35.87Q191.53 35.87 191.07 36.23Q190.61 36.59 190.32 37.17Q190.03 37.75 189.90 38.46Q189.77 39.17 189.77 39.87L189.77 39.87Q189.77 40.30 189.85 40.78Q189.94 41.27 190.06 41.70ZM219.13 39.19L219.13 39.19Q219.03 39.39 218.73 40.00Q218.43 40.61 217.96 41.41Q217.49 42.21 216.86 43.07Q216.23 43.94 215.46 44.66Q214.69 45.39 213.80 45.86Q212.91 46.33 211.92 46.33L211.92 46.33Q210.52 46.33 209.57 45.44Q208.62 44.54 208.18 43.19L208.18 43.19Q207.36 44.57 206.23 45.37Q205.10 46.18 203.96 46.18L203.96 46.18Q203.07 46.18 202.35 45.86Q201.63 45.53 201.12 44.94Q200.61 44.35 200.34 43.56Q200.06 42.76 200.06 41.82L200.06 41.82Q200.06 39.94 200.70 38.51Q201.34 37.07 202.33 36.11Q203.31 35.14 204.51 34.66Q205.70 34.18 206.81 34.18L206.81 34.18Q207.56 34.18 208.18 34.38Q208.81 34.59 209.26 34.83Q209.70 35.07 209.94 35.28Q210.18 35.48 210.21 35.50L210.21 35.50Q210.47 35.82 210.47 36.16L210.47 36.16Q210.47 36.52 210.21 36.79Q209.94 37.07 209.58 37.07L209.58 37.07Q209.19 37.07 208.93 36.81L208.93 36.81Q208.88 36.76 208.71 36.63Q208.54 36.49 208.25 36.35Q207.97 36.20 207.57 36.10Q207.17 35.99 206.66 35.99L206.66 35.99Q205.92 35.99 205.07 36.32Q204.23 36.66 203.53 37.37Q202.83 38.08 202.36 39.16Q201.89 40.23 201.89 41.70L201.89 41.70Q201.89 42.16 201.99 42.63Q202.08 43.10 202.33 43.48Q202.57 43.87 202.98 44.11Q203.39 44.35 203.99 44.35L203.99 44.35Q204.42 44.35 204.99 44.06Q205.56 43.77 206.07 43.17Q206.59 42.57 207.01 41.65Q207.44 40.74 207.60 39.48L207.60 39.48Q207.65 39.14 207.92 38.92Q208.18 38.69 208.54 38.69L208.54 38.69Q208.88 38.69 209.13 38.95Q209.39 39.22 209.41 39.55L209.41 39.55Q209.44 40.01 209.51 40.84Q209.58 41.68 209.83 42.49Q210.09 43.31 210.59 43.92Q211.10 44.52 211.99 44.52L211.99 44.52Q212.57 44.52 213.14 44.21Q213.70 43.89 214.24 43.37Q214.79 42.86 215.28 42.19Q215.78 41.53 216.18 40.86Q216.59 40.18 216.91 39.55Q217.22 38.93 217.44 38.47L217.44 38.47Q217.56 38.20 217.79 38.06Q218.02 37.91 218.28 37.91L218.28 37.91Q218.69 37.91 218.94 38.22Q219.20 38.52 219.20 38.85L219.20 38.85Q219.20 39.02 219.13 39.19ZM225.46 43.22L225.46 43.22Q224.62 44.59 223.50 45.39Q222.38 46.18 221.25 46.18L221.25 46.18Q220.33 46.18 219.61 45.84Q218.88 45.51 218.35 44.89Q217.82 44.28 217.55 43.41Q217.27 42.54 217.27 41.46L217.27 41.46Q217.27 39.77 217.59 38.47Q217.92 37.17 218.31 36.29Q218.69 35.41 219.03 34.95Q219.37 34.49 219.37 34.49L219.37 34.49Q219.49 34.35 219.67 34.28Q219.85 34.20 220.04 34.20L220.04 34.20Q220.43 34.20 220.68 34.48Q220.93 34.76 220.93 35.12L220.93 35.12Q220.93 35.26 220.87 35.41Q220.81 35.55 220.74 35.70L220.74 35.70Q220.62 35.91 220.35 36.36Q220.09 36.81 219.80 37.53Q219.51 38.25 219.29 39.23Q219.08 40.20 219.08 41.46L219.08 41.46Q219.08 42.88 219.64 43.62Q220.21 44.35 221.25 44.35L221.25 44.35Q221.68 44.35 222.25 44.07Q222.81 43.80 223.36 43.22Q223.90 42.64 224.31 41.75Q224.72 40.86 224.84 39.65L224.84 39.65L225.20 35.50Q225.25 35.14 225.51 34.90Q225.78 34.66 226.14 34.66L226.14 34.66Q226.55 34.66 226.79 34.96Q227.03 35.26 227.03 35.65L227.03 35.65L226.72 39.65Q226.67 40.16 226.75 40.98Q226.84 41.80 227.10 42.59Q227.37 43.39 227.90 43.95Q228.43 44.52 229.30 44.52L229.30 44.52Q229.92 44.52 230.53 44.19Q231.13 43.87 231.68 43.34Q232.24 42.81 232.71 42.15Q233.18 41.48 233.58 40.81Q233.97 40.13 234.26 39.52Q234.55 38.90 234.74 38.47L234.74 38.47Q234.87 38.20 235.08 38.06Q235.30 37.91 235.56 37.91L235.56 37.91Q236.00 37.91 236.24 38.20Q236.48 38.49 236.48 38.83L236.48 38.83Q236.48 39.02 236.41 39.19L236.41 39.19Q236.31 39.39 236.03 40.00Q235.76 40.61 235.31 41.40Q234.87 42.18 234.24 43.05Q233.61 43.92 232.84 44.65Q232.07 45.39 231.17 45.86Q230.26 46.33 229.22 46.33L229.22 46.33Q227.80 46.33 226.86 45.52Q225.92 44.71 225.46 43.22ZM254.27 21.79L254.27 21.79Q254.27 22.18 254.00 22.40Q253.74 22.63 253.35 22.63L253.35 22.63L241.13 22.63L241.13 22.90Q241.13 24.37 240.92 26.03Q240.70 27.69 240.32 29.35Q239.95 31.00 239.48 32.56Q239.01 34.13 238.52 35.46Q238.02 36.78 237.54 37.76Q237.06 38.73 236.67 39.22L236.67 39.22Q236.99 40.33 237.42 41.28Q237.85 42.23 238.40 42.94Q238.94 43.65 239.57 44.06Q240.19 44.47 240.92 44.47L240.92 44.47Q241.76 44.47 242.59 43.76Q243.42 43.05 244.13 42.07Q244.84 41.10 245.39 40.10Q245.93 39.10 246.17 38.49L246.17 38.49Q246.41 37.91 247.01 37.91L247.01 37.91Q247.42 37.91 247.68 38.20Q247.93 38.49 247.93 38.83L247.93 38.83Q247.93 39.00 247.86 39.17L247.86 39.17Q247.78 39.34 247.51 39.94Q247.23 40.54 246.78 41.34Q246.34 42.13 245.75 43.01Q245.16 43.89 244.42 44.62Q243.69 45.34 242.84 45.82Q242.00 46.30 241.06 46.30L241.06 46.30Q239.40 46.30 238.07 45.22Q236.75 44.13 235.82 42.18Q234.89 40.23 234.41 37.55Q233.93 34.88 233.93 31.70L233.93 31.70Q233.93 30.90 233.95 29.83Q233.97 28.76 234.05 27.56Q234.12 26.37 234.26 25.10Q234.41 23.84 234.65 22.63L234.65 22.63L226.00 22.63Q225.61 22.63 225.34 22.40Q225.08 22.18 225.08 21.79L225.08 21.79Q225.08 21.40 225.34 21.17Q225.61 20.95 226.00 20.95L226.00 20.95L235.06 20.95Q235.30 20.08 235.62 19.36Q235.95 18.63 236.37 18.10Q236.79 17.57 237.31 17.27Q237.83 16.97 238.46 16.97L238.46 16.97Q239.06 16.97 239.51 17.27Q239.95 17.57 240.26 18.10Q240.58 18.63 240.76 19.36Q240.94 20.08 241.04 20.95L241.04 20.95L253.35 20.95Q253.74 20.95 254.00 21.17Q254.27 21.40 254.27 21.79ZM236.12 36.81L236.12 36.81Q236.84 35.22 237.43 33.37Q238.02 31.53 238.44 29.65Q238.87 27.77 239.10 25.96Q239.32 24.15 239.32 22.63L239.32 22.63L236.48 22.63Q236.14 24.13 235.94 26.33Q235.73 28.54 235.73 31.70L235.73 31.70Q235.73 33.46 235.83 34.65Q235.93 35.84 236.12 36.81ZM238.36 18.78L238.36 18.78Q238.14 18.78 237.73 19.25Q237.32 19.72 236.91 20.95L236.91 20.95L239.23 20.95Q239.11 19.93 238.88 19.36Q238.65 18.78 238.36 18.78ZM236.50 38.57L236.50 38.54L236.50 38.57ZM255.23 46.25L255.23 46.25Q256.08 45.41 256.94 44.53Q257.81 43.65 258.63 42.69Q259.45 41.72 260.16 40.67Q260.87 39.63 261.43 38.45L261.43 38.45Q261.55 38.18 261.76 38.05Q261.98 37.91 262.25 37.91L262.25 37.91Q262.66 37.91 262.91 38.20Q263.16 38.49 263.16 38.85L263.16 38.85Q263.16 39.05 263.09 39.22L263.09 39.22Q262.34 40.78 261.38 42.08Q260.41 43.39 259.35 44.56Q258.29 45.72 257.21 46.82Q256.12 47.92 255.14 49.03L255.14 49.03Q255.04 50.69 255.14 52.36Q255.23 54.04 255.23 55.92L255.23 55.92Q255.23 57.46 255.14 59.01Q255.04 60.55 254.82 61.96Q254.61 63.37 254.23 64.60Q253.86 65.83 253.28 66.73Q252.70 67.63 251.93 68.15Q251.16 68.67 250.12 68.67L250.12 68.67Q248.41 68.67 247.50 67.49Q246.58 66.31 246.58 64.19L246.58 64.19Q246.58 63.03 246.83 61.71Q247.09 60.38 247.54 58.97Q248.00 57.56 248.64 56.11Q249.28 54.67 250.03 53.29Q250.77 51.92 251.62 50.68Q252.46 49.44 253.33 48.42L253.33 48.42Q253.38 47.27 253.44 46.03Q253.50 44.78 253.57 43.72L253.57 43.72Q252.94 44.83 252.01 45.51Q251.09 46.18 249.98 46.18L249.98 46.18Q248.15 46.18 247.11 44.95Q246.07 43.72 246.07 41.58L246.07 41.58Q246.07 40.01 246.37 38.72Q246.68 37.43 247.03 36.50Q247.37 35.58 247.66 35.08Q247.95 34.59 247.95 34.61L247.95 34.61Q248.22 34.20 248.70 34.20L248.70 34.20Q249.11 34.20 249.36 34.48Q249.62 34.76 249.62 35.12L249.62 35.12Q249.62 35.38 249.47 35.60L249.47 35.60Q249.50 35.58 249.24 36.00Q248.99 36.42 248.69 37.22Q248.39 38.01 248.13 39.12Q247.88 40.23 247.88 41.55L247.88 41.55Q247.88 42.88 248.36 43.63Q248.85 44.37 249.93 44.37L249.93 44.37Q251.30 44.37 252.41 42.34Q253.52 40.30 254.29 36.42L254.29 36.42Q254.34 36.11 254.58 35.90Q254.82 35.70 255.16 35.70L255.16 35.70Q255.55 35.70 255.81 35.96Q256.08 36.23 256.08 36.61L256.08 36.61Q256.08 36.69 255.98 37.47Q255.88 38.25 255.75 39.55Q255.62 40.86 255.47 42.58Q255.33 44.30 255.23 46.25ZM253.30 51.36L253.30 51.36Q252.22 52.93 251.32 54.67Q250.41 56.40 249.76 58.11Q249.11 59.83 248.75 61.39Q248.39 62.96 248.39 64.19L248.39 64.19Q248.39 65.44 248.80 66.15Q249.21 66.86 250.10 66.86L250.10 66.86Q250.89 66.86 251.51 66.08Q252.12 65.30 252.55 63.85Q252.97 62.40 253.18 60.34Q253.40 58.28 253.40 55.73L253.40 55.73Q253.40 54.69 253.36 53.63Q253.33 52.57 253.30 51.36ZM318.50 45.80L318.50 45.80Q318.60 45.97 318.60 46.21L318.60 46.21Q318.60 46.57 318.35 46.83Q318.09 47.10 317.68 47.10L317.68 47.10Q317.42 47.10 317.21 46.98Q317.01 46.86 316.89 46.62L316.89 46.62Q316.43 45.72 316.08 44.39Q315.73 43.05 315.48 41.41Q315.23 39.77 315.07 37.88Q314.91 35.99 314.82 33.96L314.82 33.96Q313.01 34.20 310.76 34.49Q308.50 34.78 305.61 35.17L305.61 35.17Q303.58 35.46 301.49 35.67L301.49 35.67Q296.33 41.29 290.63 44.19Q284.93 47.10 279.19 47.10L279.19 47.10Q276.64 47.10 274.77 46.60Q272.90 46.11 271.68 45.50Q270.47 44.88 269.85 44.35Q269.24 43.82 269.19 43.77L269.19 43.77Q268.95 43.53 268.95 43.15L268.95 43.15Q268.95 42.76 269.21 42.49Q269.48 42.23 269.84 42.23L269.84 42.23Q270.25 42.23 270.51 42.52L270.51 42.52Q270.56 42.57 271.09 43.01Q271.62 43.46 272.67 43.96Q273.72 44.47 275.34 44.88Q276.95 45.29 279.17 45.29L279.17 45.29Q282.20 45.29 284.98 44.47Q287.75 43.65 290.22 42.34Q292.69 41.02 294.82 39.34Q296.96 37.65 298.69 35.91L298.69 35.91Q296.98 36.06 295.29 36.13Q293.61 36.20 291.97 36.20L291.97 36.20Q288.74 36.20 285.82 35.84Q282.90 35.48 280.69 34.62Q278.47 33.77 277.15 32.35Q275.84 30.92 275.84 28.80L275.84 28.80Q275.84 27.84 276.24 26.88Q276.64 25.91 277.19 25.13Q277.75 24.34 278.35 23.85Q278.95 23.36 279.38 23.36L279.38 23.36Q279.72 23.36 280.01 23.60Q280.30 23.84 280.30 24.25L280.30 24.25Q280.30 24.47 280.20 24.67Q280.11 24.87 279.91 25.00L279.91 25.00Q279.87 25.04 279.50 25.33Q279.14 25.62 278.73 26.12Q278.32 26.61 277.99 27.30Q277.65 27.98 277.65 28.78L277.65 28.78Q277.65 30.15 278.60 31.20Q279.55 32.25 281.37 32.96Q283.19 33.67 285.84 34.03Q288.50 34.40 291.89 34.40L291.89 34.40Q293.85 34.40 296.02 34.28Q298.19 34.15 300.60 33.91L300.60 33.91Q301.75 32.64 302.64 31.50Q303.54 30.37 304.16 29.48L304.16 29.48Q305.20 28.01 306.33 26.35Q307.47 24.68 308.59 22.97Q309.71 21.26 310.78 19.58Q311.85 17.91 312.79 16.43Q313.73 14.94 314.48 13.73Q315.23 12.51 315.71 11.71L315.71 11.71Q315.85 11.06 316.14 10.52Q316.43 9.98 317.08 9.98L317.08 9.98Q317.44 9.98 317.78 10.28Q318.12 10.58 318.12 11.04L318.12 11.04Q318.12 11.38 317.88 11.76Q317.64 12.15 317.42 12.41L317.42 12.41Q317.35 12.87 317.19 14.37Q317.03 15.86 316.88 18.02Q316.72 20.17 316.61 22.77Q316.50 25.36 316.50 28.01L316.50 28.01Q316.50 29.00 316.50 29.96Q316.50 30.92 316.55 31.91L316.55 31.91Q320.17 31.46 321.83 31.27Q323.49 31.09 323.59 31.09L323.59 31.09Q323.90 31.09 324.20 31.35Q324.51 31.60 324.51 32.01L324.51 32.01Q324.51 32.35 324.28 32.60Q324.05 32.85 323.69 32.90L323.69 32.90Q323.25 32.95 322.67 33.02Q322.10 33.09 321.25 33.19Q320.41 33.29 319.28 33.42Q318.14 33.55 316.62 33.74L316.62 33.74Q316.70 35.72 316.85 37.54Q317.01 39.36 317.24 40.93Q317.47 42.49 317.78 43.75Q318.09 45.00 318.50 45.80ZM305.37 33.36L305.37 33.36Q308.21 32.97 310.54 32.67Q312.86 32.37 314.74 32.13L314.74 32.13Q314.72 31.09 314.71 30.06Q314.70 29.02 314.70 27.96L314.70 27.96Q314.70 24.56 314.82 21.46Q314.94 18.37 315.15 16.08L315.15 16.08Q314.19 17.60 313.02 19.44Q311.85 21.28 310.60 23.20Q309.35 25.12 308.07 27.00Q306.79 28.88 305.63 30.52L305.63 30.52Q305.05 31.33 304.45 32.11Q303.85 32.88 303.25 33.62L303.25 33.62Q303.78 33.58 304.30 33.50Q304.81 33.43 305.37 33.36ZM339.50 39.24L339.50 39.24Q339.35 39.51 339.00 40.20Q338.66 40.90 338.06 41.78Q337.47 42.66 336.65 43.60Q335.83 44.54 334.77 45.33Q333.71 46.11 332.40 46.62Q331.09 47.12 329.54 47.12L329.54 47.12Q328.17 47.12 327.11 46.63Q326.05 46.13 325.30 45.23Q324.55 44.33 324.17 43.10Q323.78 41.87 323.78 40.37L323.78 40.37Q323.78 38.93 324.19 37.66Q324.60 36.40 325.31 35.46Q326.02 34.52 326.96 33.97Q327.90 33.43 328.97 33.43L328.97 33.43Q329.76 33.43 330.41 33.71Q331.06 33.99 331.51 34.44Q331.95 34.90 332.21 35.46Q332.46 36.01 332.46 36.57L332.46 36.57Q332.46 37.10 332.33 37.55Q332.20 38.01 331.99 38.36Q331.79 38.71 331.52 38.92Q331.26 39.12 330.99 39.12L330.99 39.12Q330.58 39.12 330.33 38.85Q330.07 38.59 330.07 38.20L330.07 38.20Q330.07 38.01 330.16 37.87Q330.24 37.72 330.35 37.57Q330.46 37.41 330.54 37.18Q330.63 36.95 330.63 36.59L330.63 36.59Q330.63 36.08 330.16 35.67Q329.69 35.26 328.97 35.26L328.97 35.26Q328.29 35.26 327.68 35.67Q327.06 36.08 326.60 36.77Q326.15 37.46 325.87 38.38Q325.59 39.31 325.59 40.35L325.59 40.35Q325.59 41.34 325.83 42.23Q326.07 43.12 326.56 43.81Q327.04 44.50 327.77 44.90Q328.51 45.31 329.52 45.31L329.52 45.31Q330.82 45.31 331.93 44.84Q333.04 44.37 333.95 43.65Q334.87 42.93 335.57 42.07Q336.27 41.22 336.76 40.46Q337.26 39.70 337.53 39.13Q337.81 38.57 337.86 38.42L337.86 38.42Q337.96 38.18 338.19 38.05Q338.41 37.91 338.68 37.91L338.68 37.91Q339.09 37.91 339.34 38.20Q339.60 38.49 339.60 38.85L339.60 38.85Q339.60 39.00 339.50 39.24ZM356.49 39.19L356.49 39.19Q356.40 39.39 356.09 40.00Q355.79 40.61 355.32 41.41Q354.85 42.21 354.23 43.07Q353.60 43.94 352.83 44.66Q352.06 45.39 351.16 45.86Q350.27 46.33 349.28 46.33L349.28 46.33Q347.89 46.33 346.93 45.44Q345.98 44.54 345.55 43.19L345.55 43.19Q344.73 44.57 343.60 45.37Q342.46 46.18 341.33 46.18L341.33 46.18Q340.44 46.18 339.72 45.86Q338.99 45.53 338.49 44.94Q337.98 44.35 337.70 43.56Q337.43 42.76 337.43 41.82L337.43 41.82Q337.43 39.94 338.06 38.51Q338.70 37.07 339.69 36.11Q340.68 35.14 341.87 34.66Q343.07 34.18 344.17 34.18L344.17 34.18Q344.92 34.18 345.55 34.38Q346.18 34.59 346.62 34.83Q347.07 35.07 347.31 35.28Q347.55 35.48 347.57 35.50L347.57 35.50Q347.84 35.82 347.84 36.16L347.84 36.16Q347.84 36.52 347.57 36.79Q347.31 37.07 346.95 37.07L346.95 37.07Q346.56 37.07 346.30 36.81L346.30 36.81Q346.25 36.76 346.08 36.63Q345.91 36.49 345.62 36.35Q345.33 36.20 344.93 36.10Q344.54 35.99 344.03 35.99L344.03 35.99Q343.28 35.99 342.44 36.32Q341.60 36.66 340.90 37.37Q340.20 38.08 339.73 39.16Q339.26 40.23 339.26 41.70L339.26 41.70Q339.26 42.16 339.35 42.63Q339.45 43.10 339.69 43.48Q339.93 43.87 340.34 44.11Q340.75 44.35 341.35 44.35L341.35 44.35Q341.79 44.35 342.35 44.06Q342.92 43.77 343.44 43.17Q343.96 42.57 344.38 41.65Q344.80 40.74 344.97 39.48L344.97 39.48Q345.02 39.14 345.28 38.92Q345.55 38.69 345.91 38.69L345.91 38.69Q346.25 38.69 346.50 38.95Q346.75 39.22 346.78 39.55L346.78 39.55Q346.80 40.01 346.87 40.84Q346.95 41.68 347.20 42.49Q347.45 43.31 347.96 43.92Q348.47 44.52 349.36 44.52L349.36 44.52Q349.94 44.52 350.50 44.21Q351.07 43.89 351.61 43.37Q352.15 42.86 352.65 42.19Q353.14 41.53 353.55 40.86Q353.96 40.18 354.27 39.55Q354.59 38.93 354.80 38.47L354.80 38.47Q354.92 38.20 355.15 38.06Q355.38 37.91 355.65 37.91L355.65 37.91Q356.06 37.91 356.31 38.22Q356.56 38.52 356.56 38.85L356.56 38.85Q356.56 39.02 356.49 39.19ZM364.18 38.90L364.18 38.90Q365.36 44.47 367.60 44.47L367.60 44.47Q368.47 44.47 369.27 43.83Q370.06 43.19 370.75 42.27Q371.44 41.34 371.97 40.30Q372.50 39.26 372.83 38.49L372.83 38.49Q373.07 37.91 373.68 37.91L373.68 37.91Q374.06 37.91 374.33 38.20Q374.59 38.49 374.59 38.83L374.59 38.83Q374.59 39.02 374.52 39.17L374.52 39.17Q374.35 39.58 374.03 40.27Q373.70 40.95 373.23 41.74Q372.76 42.52 372.18 43.34Q371.60 44.16 370.91 44.81Q370.21 45.46 369.42 45.88Q368.64 46.30 367.77 46.30L367.77 46.30Q366.16 46.30 365.00 45.18Q363.84 44.06 363.00 41.48L363.00 41.48Q361.84 43.94 360.66 45.05Q359.48 46.16 358.11 46.16L358.11 46.16Q357.38 46.16 356.71 45.93Q356.03 45.70 355.53 45.17Q355.02 44.64 354.71 43.81Q354.39 42.98 354.39 41.77L354.39 41.77Q354.39 40.11 354.97 38.71Q355.55 37.31 356.47 36.31Q357.38 35.31 358.50 34.76Q359.63 34.20 360.73 34.20L360.73 34.20Q361.10 34.20 361.36 34.46Q361.63 34.71 361.63 35.09L361.63 35.09Q361.63 35.43 361.41 35.70Q361.19 35.96 360.83 36.01L360.83 36.01Q360.11 36.11 359.29 36.47Q358.47 36.83 357.78 37.52Q357.09 38.20 356.65 39.26Q356.20 40.33 356.20 41.80L356.20 41.80Q356.20 43.00 356.70 43.68Q357.19 44.35 358.13 44.35L358.13 44.35Q358.52 44.35 358.95 44.15Q359.38 43.94 359.88 43.34Q360.37 42.74 360.96 41.63Q361.55 40.52 362.28 38.71L362.28 38.71Q361.87 36.59 361.53 33.82Q361.19 31.05 361.19 27.62L361.19 27.62Q361.19 26.13 361.29 24.50Q361.38 22.87 361.60 21.32Q361.82 19.76 362.18 18.37Q362.54 16.97 363.06 15.91Q363.58 14.85 364.28 14.23Q364.98 13.62 365.87 13.62L365.87 13.62Q366.66 13.62 367.22 14.05Q367.77 14.49 368.12 15.26Q368.47 16.03 368.64 17.11Q368.81 18.20 368.81 19.50L368.81 19.50Q368.81 22.30 368.33 25.09Q367.84 27.89 367.13 30.44Q366.42 33.00 365.63 35.17Q364.83 37.34 364.18 38.90ZM367.00 19.48L367.00 19.48Q367.00 18.87 366.96 18.17Q366.93 17.48 366.80 16.86Q366.66 16.25 366.45 15.84Q366.23 15.43 365.87 15.43L365.87 15.43Q365.27 15.43 364.75 16.49Q364.23 17.55 363.84 19.27Q363.46 20.99 363.23 23.18Q363.00 25.36 363.00 27.57L363.00 27.57Q363.00 29.70 363.17 31.82Q363.34 33.94 363.55 35.60L363.55 35.60Q364.25 33.74 364.88 31.78Q365.51 29.82 365.98 27.77Q366.45 25.72 366.72 23.63Q367.00 21.55 367.00 19.48ZM375.75 43.27L375.75 43.27Q376.26 43.96 377.05 44.39Q377.85 44.81 379.00 44.81L379.00 44.81Q380.19 44.81 381.15 44.24Q382.11 43.68 382.91 42.76Q383.70 41.84 384.33 40.71Q384.96 39.58 385.46 38.45L385.46 38.45Q385.58 38.18 385.80 38.05Q386.02 37.91 386.28 37.91L386.28 37.91Q386.69 37.91 386.95 38.20Q387.20 38.49 387.20 38.83L387.20 38.83Q387.20 38.95 387.18 39.04Q387.15 39.12 387.10 39.22L387.10 39.22Q385.44 42.88 383.48 44.74Q381.51 46.59 379.03 46.64L379.03 46.64Q377.44 46.64 376.28 46.03Q375.12 45.41 374.38 44.43Q373.63 43.46 373.27 42.23Q372.91 41.00 372.91 39.77L372.91 39.77Q372.91 38.54 373.21 37.51Q373.51 36.47 374.08 35.70Q374.64 34.93 375.43 34.49Q376.21 34.06 377.15 34.06L377.15 34.06Q377.70 34.06 378.25 34.29Q378.79 34.52 379.22 34.94Q379.66 35.36 379.92 35.96Q380.19 36.57 380.19 37.34L380.19 37.34Q380.19 38.32 379.85 39.19Q379.51 40.06 378.92 40.81Q378.33 41.55 377.51 42.18Q376.69 42.81 375.75 43.27ZM375.03 41.70L375.03 41.70Q375.77 41.39 376.39 40.90Q377.00 40.42 377.44 39.84Q377.87 39.26 378.11 38.63Q378.35 37.99 378.35 37.34L378.35 37.34Q378.35 36.61 377.99 36.24Q377.63 35.87 377.15 35.87L377.15 35.87Q376.50 35.87 376.04 36.23Q375.58 36.59 375.29 37.17Q375.00 37.75 374.87 38.46Q374.74 39.17 374.74 39.87L374.74 39.87Q374.74 40.30 374.82 40.78Q374.91 41.27 375.03 41.70ZM391.03 43.77L391.03 43.77Q391.39 43.05 391.96 41.98Q392.53 40.90 393.14 39.82Q393.76 38.73 394.35 37.77Q394.94 36.81 395.35 36.30L395.35 36.30Q396.05 35.46 396.79 35.09Q397.54 34.73 398.17 34.73L398.17 34.73Q398.79 34.73 399.24 35.00Q399.69 35.26 399.97 35.71Q400.26 36.16 400.41 36.75Q400.55 37.34 400.55 38.01L400.55 38.01Q400.55 38.40 400.52 39.02Q400.48 39.65 400.44 40.37Q400.41 41.10 400.37 41.87Q400.34 42.64 400.31 43.31L400.31 43.31Q400.67 42.59 401.13 41.71Q401.59 40.83 402.06 39.96Q402.53 39.10 402.96 38.34Q403.40 37.58 403.76 37.10L403.76 37.10Q404.80 35.67 405.70 35.19Q406.60 34.71 407.30 34.71L407.30 34.71Q408.12 34.71 408.65 35.01Q409.18 35.31 409.48 35.78Q409.78 36.25 409.91 36.83Q410.03 37.41 410.03 37.94L410.03 37.94Q410.03 38.76 409.91 39.65Q409.78 40.54 409.78 41.77L409.78 41.77Q409.78 42.28 409.83 42.78Q409.88 43.29 410.04 43.68Q410.19 44.06 410.53 44.30Q410.87 44.54 411.45 44.54L411.45 44.54Q412.07 44.54 412.68 44.22Q413.28 43.89 413.83 43.36Q414.39 42.83 414.88 42.16Q415.38 41.48 415.79 40.81Q416.20 40.13 416.51 39.52Q416.82 38.90 417.02 38.47L417.02 38.47Q417.14 38.20 417.35 38.06Q417.57 37.91 417.84 37.91L417.84 37.91Q418.25 37.91 418.50 38.22Q418.75 38.52 418.75 38.85L418.75 38.85Q418.75 39.02 418.68 39.19L418.68 39.19Q418.58 39.39 418.29 40.00Q418.00 40.61 417.52 41.40Q417.04 42.18 416.40 43.05Q415.76 43.92 414.99 44.65Q414.22 45.39 413.33 45.86Q412.44 46.33 411.45 46.33L411.45 46.33Q410.39 46.33 409.72 45.95Q409.06 45.58 408.66 44.95Q408.27 44.33 408.12 43.51Q407.98 42.69 407.98 41.80L407.98 41.80Q407.98 40.61 408.10 39.61Q408.22 38.61 408.22 38.06L408.22 38.06Q408.22 37.46 408.11 37.14Q408.00 36.83 407.84 36.70Q407.69 36.57 407.54 36.55Q407.40 36.54 407.33 36.54L407.33 36.54Q406.75 36.54 406.11 37.18Q405.47 37.82 404.80 38.88Q404.12 39.94 403.41 41.29Q402.70 42.64 401.98 44.04L401.98 44.04Q401.57 44.81 401.29 45.31Q401.01 45.82 400.76 46.11Q400.50 46.40 400.26 46.52Q400.02 46.64 399.73 46.64L399.73 46.64Q399.11 46.64 398.78 46.21Q398.46 45.77 398.46 45.07L398.46 45.07Q398.46 44.71 398.48 44.11Q398.50 43.51 398.53 42.78Q398.55 42.06 398.60 41.29Q398.65 40.52 398.67 39.81Q398.70 39.10 398.72 38.54Q398.75 37.99 398.75 37.70L398.75 37.70Q398.75 37.07 398.53 36.79Q398.31 36.52 398.02 36.52L398.02 36.52Q397.76 36.52 397.43 36.71Q397.11 36.90 396.67 37.46L396.67 37.46Q396.33 37.89 395.82 38.72Q395.30 39.55 394.72 40.57Q394.14 41.58 393.58 42.64Q393.01 43.70 392.60 44.54L392.60 44.54Q392.09 45.56 391.59 45.93Q391.08 46.30 390.60 46.30L390.60 46.30Q389.90 46.30 389.56 45.88Q389.22 45.46 389.22 44.76L389.22 44.76Q389.22 44.69 389.26 43.89Q389.30 43.10 389.34 41.95Q389.39 40.81 389.45 39.51Q389.51 38.20 389.56 37.07L389.56 37.07Q389.59 36.47 389.51 35.96Q389.44 35.46 389.32 35.36L389.32 35.36Q389.13 35.41 388.56 36.25Q388.00 37.10 387.13 39.19L387.13 39.19Q387.01 39.46 386.77 39.60Q386.52 39.75 386.26 39.75L386.26 39.75Q385.85 39.75 385.61 39.47Q385.37 39.19 385.37 38.83L385.37 38.83Q385.37 38.66 385.44 38.47L385.44 38.47Q386.52 35.89 387.51 34.67Q388.50 33.46 389.44 33.46L389.44 33.46Q390.00 33.46 390.37 33.71Q390.74 33.96 390.96 34.36Q391.18 34.76 391.27 35.26Q391.37 35.77 391.37 36.25L391.37 36.25Q391.37 38.40 391.26 40.18Q391.15 41.96 391.03 43.77ZM425.98 46.25L425.98 46.25Q426.83 45.41 427.69 44.53Q428.56 43.65 429.38 42.69Q430.20 41.72 430.91 40.67Q431.62 39.63 432.18 38.45L432.18 38.45Q432.30 38.18 432.51 38.05Q432.73 37.91 433.00 37.91L433.00 37.91Q433.41 37.91 433.66 38.20Q433.91 38.49 433.91 38.85L433.91 38.85Q433.91 39.05 433.84 39.22L433.84 39.22Q433.09 40.78 432.13 42.08Q431.16 43.39 430.10 44.56Q429.04 45.72 427.96 46.82Q426.87 47.92 425.89 49.03L425.89 49.03Q425.79 50.69 425.89 52.36Q425.98 54.04 425.98 55.92L425.98 55.92Q425.98 57.46 425.89 59.01Q425.79 60.55 425.57 61.96Q425.36 63.37 424.98 64.60Q424.61 65.83 424.03 66.73Q423.45 67.63 422.68 68.15Q421.91 68.67 420.87 68.67L420.87 68.67Q419.16 68.67 418.25 67.49Q417.33 66.31 417.33 64.19L417.33 64.19Q417.33 63.03 417.58 61.71Q417.84 60.38 418.29 58.97Q418.75 57.56 419.39 56.11Q420.03 54.67 420.78 53.29Q421.52 51.92 422.37 50.68Q423.21 49.44 424.08 48.42L424.08 48.42Q424.13 47.27 424.19 46.03Q424.25 44.78 424.32 43.72L424.32 43.72Q423.69 44.83 422.76 45.51Q421.84 46.18 420.73 46.18L420.73 46.18Q418.90 46.18 417.86 44.95Q416.82 43.72 416.82 41.58L416.82 41.58Q416.82 40.01 417.12 38.72Q417.43 37.43 417.78 36.50Q418.12 35.58 418.41 35.08Q418.70 34.59 418.70 34.61L418.70 34.61Q418.97 34.20 419.45 34.20L419.45 34.20Q419.86 34.20 420.11 34.48Q420.37 34.76 420.37 35.12L420.37 35.12Q420.37 35.38 420.22 35.60L420.22 35.60Q420.25 35.58 419.99 36.00Q419.74 36.42 419.44 37.22Q419.14 38.01 418.88 39.12Q418.63 40.23 418.63 41.55L418.63 41.55Q418.63 42.88 419.11 43.63Q419.59 44.37 420.68 44.37L420.68 44.37Q422.05 44.37 423.16 42.34Q424.27 40.30 425.04 36.42L425.04 36.42Q425.09 36.11 425.33 35.90Q425.57 35.70 425.91 35.70L425.91 35.70Q426.30 35.70 426.56 35.96Q426.83 36.23 426.83 36.61L426.83 36.61Q426.83 36.69 426.73 37.47Q426.63 38.25 426.50 39.55Q426.37 40.86 426.22 42.58Q426.08 44.30 425.98 46.25ZM424.05 51.36L424.05 51.36Q422.97 52.93 422.07 54.67Q421.16 56.40 420.51 58.11Q419.86 59.83 419.50 61.39Q419.14 62.96 419.14 64.19L419.14 64.19Q419.14 65.44 419.55 66.15Q419.96 66.86 420.85 66.86L420.85 66.86Q421.64 66.86 422.26 66.08Q422.87 65.30 423.29 63.85Q423.72 62.40 423.93 60.34Q424.15 58.28 424.15 55.73L424.15 55.73Q424.15 54.69 424.11 53.63Q424.08 52.57 424.05 51.36Z" transform="translate(0, 0)"></path></g></svg></svg>